<?xml version="1.0" encoding="UTF-8"?>
<svg width="50" height="50" version="1.1" viewBox="0 0 700 700" xmlns="http://www.w3.org/2000/svg" xmlns:xlink="http://www.w3.org/1999/xlink">
 <g>
  <path d="m241.92 294-30.801-7.2812c-25.762-6.1602-42-31.922-35.84-57.68l34.719-149.52c6.1602-25.762 31.922-42 57.68-35.84l30.801 7.2812c7.8398 1.6797 12.879 9.5195 11.199 17.359l-49.281 214.48c-2.7969 8.3984-10.637 12.879-18.477 11.199zm150.64-170.24c27.441 1.1211 50.398-19.602 52.078-47.039 1.1211-27.441-19.602-50.398-47.039-52.078-27.441-1.1211-50.398 19.602-52.078 47.039-1.1211 27.438 20.16 50.395 47.039 52.078zm72.801 147.84 0.55859-1.1211c2.2383-5.6016-0.55859-12.32-6.7188-14.559l-34.719-19.039c-3.3594-1.6797-6.1602-5.0391-6.7188-8.9609l-8.9609-39.199s-13.441-43.68-40.32-49.281l-4.4805-1.1211c-4.4805-1.1211-8.9609 0-12.32 3.3594-24.078 21.281-40.879 49.281-48.16 80.078l-11.199 48.16-48.719 248.64c-1.6797 9.5195 3.9219 19.039 13.441 21.281l1.6797 0.55859c9.5195 2.2383 19.602-3.3594 22.398-12.879l40.879-137.2 74.48 141.68c4.4805 8.9609 15.121 12.32 24.078 8.3984l1.6797-0.55859c8.9609-3.9219 12.879-14.559 9.5195-23.52l-80.078-196 11.199-67.199 87.922 25.758c6.1602 1.6797 12.32-1.6797 14.559-7.2773zm65.52 248.64-43.121-206.08c-1.6797-7.8398-9.5195-12.879-17.359-11.199-7.8398 1.6797-12.879 9.5195-11.199 17.359l42.562 206.08c1.6797 6.7188 7.2812 11.762 14.559 11.762 1.1211 0 2.2383 0 2.8008-0.55859 7.8398-1.6797 13.438-9.5234 11.758-17.363z"/>
 </g>
</svg>
