{
"scenes" : [
{
   "nodes" : [0,1,2,3,4,5,6,7,8,9,10,11]
}
],

"nodes" : [
{
   "mesh" : 0
}
,{
   "mesh" : 1
}
,{
   "mesh" : 2
}
,{
   "mesh" : 3
}
,{
   "mesh" : 4
}
,{
   "mesh" : 5
}
,{
   "mesh" : 6
}
,{
   "mesh" : 7
}
,{
   "mesh" : 8
}
,{
   "mesh" : 9
}
,{
   "mesh" : 10
}
,{
   "mesh" : 11
}
],
"meshes" : [
{
   "primitives" : [ {
        "indices" : 0,
       "attributes" : {
           "POSITION" : 1
,           "TEXCOORD_0" : 2
       },
       "material" : 0
   } ],
   "extras": {
     "NBound": "46.920255315374526",
     "SBound": "46.890231573593994",
     "cellWidth_LonMeters": "63.099037623503996",
     "cellWidth_LatMeters": "92.83965685326548",
     "WBound": "9.5361328125",
     "Distance1DegreeLatitude": "111319.49079327358",
     "EBound": "9.580078125",
     "Distance1DegreeLongitude": "76100.24377561797"}
}
,{
   "primitives" : [ {
        "indices" : 3,
       "attributes" : {
           "POSITION" : 4
       }
   } ],
   "extras": {
}
}
,{
   "primitives" : [ {
        "indices" : 5,
       "attributes" : {
           "POSITION" : 6
,           "TEXCOORD_0" : 7
       },
       "material" : 1
   } ],
   "extras": {
     "NBound": "46.890231573593994",
     "SBound": "46.86019101567025",
     "cellWidth_LonMeters": "63.099037623503996",
     "cellWidth_LatMeters": "92.89165586712902",
     "WBound": "9.5361328125",
     "Distance1DegreeLatitude": "111319.49079327358",
     "EBound": "9.580078125",
     "Distance1DegreeLongitude": "76100.24377561797"}
}
,{
   "primitives" : [ {
        "indices" : 8,
       "attributes" : {
           "POSITION" : 9
       }
   } ],
   "extras": {
}
}
,{
   "primitives" : [ {
        "indices" : 10,
       "attributes" : {
           "POSITION" : 11
,           "TEXCOORD_0" : 12
       },
       "material" : 2
   } ],
   "extras": {
     "NBound": "46.86019101567025",
     "SBound": "46.830133640447386",
     "cellWidth_LonMeters": "63.099037623503996",
     "cellWidth_LatMeters": "90.43166768626857",
     "WBound": "9.5361328125",
     "Distance1DegreeLatitude": "111319.49079327358",
     "EBound": "9.580078125",
     "Distance1DegreeLongitude": "76100.24377561797"}
}
,{
   "primitives" : [ {
        "indices" : 13,
       "attributes" : {
           "POSITION" : 14
       }
   } ],
   "extras": {
}
}
,{
   "primitives" : [ {
        "indices" : 15,
       "attributes" : {
           "POSITION" : 16
,           "TEXCOORD_0" : 17
       },
       "material" : 3
   } ],
   "extras": {
     "NBound": "46.920255315374526",
     "SBound": "46.890231573593994",
     "cellWidth_LonMeters": "63.099037623503996",
     "cellWidth_LatMeters": "92.83965685326548",
     "WBound": "9.580078125",
     "Distance1DegreeLatitude": "111319.49079327358",
     "EBound": "9.6240234375",
     "Distance1DegreeLongitude": "76100.24377561797"}
}
,{
   "primitives" : [ {
        "indices" : 18,
       "attributes" : {
           "POSITION" : 19
       }
   } ],
   "extras": {
}
}
,{
   "primitives" : [ {
        "indices" : 20,
       "attributes" : {
           "POSITION" : 21
,           "TEXCOORD_0" : 22
       },
       "material" : 4
   } ],
   "extras": {
     "NBound": "46.890231573593994",
     "SBound": "46.86019101567025",
     "cellWidth_LonMeters": "63.099037623503996",
     "cellWidth_LatMeters": "92.89165586712902",
     "WBound": "9.580078125",
     "Distance1DegreeLatitude": "111319.49079327358",
     "EBound": "9.6240234375",
     "Distance1DegreeLongitude": "76100.24377561797"}
}
,{
   "primitives" : [ {
        "indices" : 23,
       "attributes" : {
           "POSITION" : 24
       }
   } ],
   "extras": {
}
}
,{
   "primitives" : [ {
        "indices" : 25,
       "attributes" : {
           "POSITION" : 26
,           "TEXCOORD_0" : 27
       },
       "material" : 5
   } ],
   "extras": {
     "NBound": "46.86019101567025",
     "SBound": "46.830133640447386",
     "cellWidth_LonMeters": "63.099037623503996",
     "cellWidth_LatMeters": "90.43166768626857",
     "WBound": "9.580078125",
     "Distance1DegreeLatitude": "111319.49079327358",
     "EBound": "9.6240234375",
     "Distance1DegreeLongitude": "76100.24377561797"}
}
,{
   "primitives" : [ {
        "indices" : 28,
       "attributes" : {
           "POSITION" : 29
       }
   } ],
   "extras": {
}
}
],

"materials" : [
{
   "pbrMetallicRoughness" : {
     "baseColorTexture" : {
        "index" : 0
      },
     "metallicFactor" : 0.0,
     "roughnessFactor" : 1.0
    }
},{
   "pbrMetallicRoughness" : {
     "baseColorTexture" : {
        "index" : 1
      },
     "metallicFactor" : 0.0,
     "roughnessFactor" : 1.0
    }
},{
   "pbrMetallicRoughness" : {
     "baseColorTexture" : {
        "index" : 2
      },
     "metallicFactor" : 0.0,
     "roughnessFactor" : 1.0
    }
},{
   "pbrMetallicRoughness" : {
     "baseColorTexture" : {
        "index" : 3
      },
     "metallicFactor" : 0.0,
     "roughnessFactor" : 1.0
    }
},{
   "pbrMetallicRoughness" : {
     "baseColorTexture" : {
        "index" : 4
      },
     "metallicFactor" : 0.0,
     "roughnessFactor" : 1.0
    }
},{
   "pbrMetallicRoughness" : {
     "baseColorTexture" : {
        "index" : 5
      },
     "metallicFactor" : 0.0,
     "roughnessFactor" : 1.0
    }
}],
"textures" : [
{
   "sampler" : 0,
   "source" : 0
},{
   "sampler" : 0,
   "source" : 1
},{
   "sampler" : 0,
   "source" : 2
},{
   "sampler" : 0,
   "source" : 3
},{
   "sampler" : 0,
   "source" : 4
},{
   "sampler" : 0,
   "source" : 5
}],
"images" : [
{
   "uri" : "map_13_4313_2884.png"
},{
   "uri" : "map_13_4313_2885.png"
},{
   "uri" : "map_13_4313_2886.png"
},{
   "uri" : "map_13_4314_2884.png"
},{
   "uri" : "map_13_4314_2885.png"
},{
   "uri" : "map_13_4314_2886.png"
}],
"samplers" : [
{
    "magFilter" : 9729,
    "minFilter" : 9987,
    "wrapS" : 33648,
    "wrapT" : 33648
}],

"buffers" : [
{
   "uri" : "data:application/octet-stream;base64,",
   "byteLength" : 45792
},
{
   "uri" : "data:application/octet-stream;base64,",
   "byteLength" : 23976
},
{
   "uri" : "data:application/octet-stream;base64,",
   "byteLength" : 15984
}
,{
   "uri" : "data:application/octet-stream;base64,",
   "byteLength" : 4344
},
{
   "uri" : "data:application/octet-stream;base64,",
   "byteLength" : 4368
},{
   "uri" : "data:application/octet-stream;base64,",
   "byteLength" : 45792
},
{
   "uri" : "data:application/octet-stream;base64,",
   "byteLength" : 23976
},
{
   "uri" : "data:application/octet-stream;base64,",
   "byteLength" : 15984
}
,{
   "uri" : "data:application/octet-stream;base64,",
   "byteLength" : 4344
},
{
   "uri" : "data:application/octet-stream;base64,",
   "byteLength" : 4368
},{
   "uri" : "data:application/octet-stream;base64,",
   "byteLength" : 47064
},
{
   "uri" : "data:application/octet-stream;base64,",
   "byteLength" : 24624
},
{
   "uri" : "data:application/octet-stream;base64,",
   "byteLength" : 16416
}
,{
   "uri" : "data:application/octet-stream;base64,",
   "byteLength" : 4392
},
{
   "uri" : "data:application/octet-stream;base64,",
   "byteLength" : 4416
},{
   "uri" : "data:application/octet-stream;base64,",
   "byteLength" : 45792
},
{
   "uri" : "data:application/octet-stream;base64,",
   "byteLength" : 23976
},
{
   "uri" : "data:application/octet-stream;base64,",
   "byteLength" : 15984
}
,{
   "uri" : "data:application/octet-stream;base64,",
   "byteLength" : 4344
},
{
   "uri" : "data:application/octet-stream;base64,",
   "byteLength" : 4368
},{
   "uri" : "data:application/octet-stream;base64,",
   "byteLength" : 45792
},
{
   "uri" : "data:application/octet-stream;base64,",
   "byteLength" : 23976
},
{
   "uri" : "data:application/octet-stream;base64,",
   "byteLength" : 15984
}
,{
   "uri" : "data:application/octet-stream;base64,",
   "byteLength" : 4344
},
{
   "uri" : "data:application/octet-stream;base64,",
   "byteLength" : 4368
},{
   "uri" : "data:application/octet-stream;base64,",
   "byteLength" : 47064
},
{
   "uri" : "data:application/octet-stream;base64,",
   "byteLength" : 24624
},
{
   "uri" : "data:application/octet-stream;base64,",
   "byteLength" : 16416
}
,{
   "uri" : "data:application/octet-stream;base64,",
   "byteLength" : 4392
},
{
   "uri" : "data:application/octet-stream;base64,",
   "byteLength" : 4416
}],
"bufferViews" : [
{
   "buffer" : 0,
   "byteOffset" : 0,
   "byteLength" : 45792,
   "target" : 34963
},
{
   "buffer" : 1,
   "byteOffset" : 0,
   "byteLength" : 23976,
   "target" : 34962
},
{
   "buffer" : 2,
   "byteOffset" : 0,
   "byteLength" : 15984,
   "target" : 34962
}
,{
   "buffer" : 3,
   "byteOffset" : 0,
   "byteLength" : 4344,
   "target" : 34963
},
{
   "buffer" : 4,
   "byteOffset" : 0,
   "byteLength" : 4368,
   "target" : 34962
},{
   "buffer" : 5,
   "byteOffset" : 0,
   "byteLength" : 45792,
   "target" : 34963
},
{
   "buffer" : 6,
   "byteOffset" : 0,
   "byteLength" : 23976,
   "target" : 34962
},
{
   "buffer" : 7,
   "byteOffset" : 0,
   "byteLength" : 15984,
   "target" : 34962
}
,{
   "buffer" : 8,
   "byteOffset" : 0,
   "byteLength" : 4344,
   "target" : 34963
},
{
   "buffer" : 9,
   "byteOffset" : 0,
   "byteLength" : 4368,
   "target" : 34962
},{
   "buffer" : 10,
   "byteOffset" : 0,
   "byteLength" : 47064,
   "target" : 34963
},
{
   "buffer" : 11,
   "byteOffset" : 0,
   "byteLength" : 24624,
   "target" : 34962
},
{
   "buffer" : 12,
   "byteOffset" : 0,
   "byteLength" : 16416,
   "target" : 34962
}
,{
   "buffer" : 13,
   "byteOffset" : 0,
   "byteLength" : 4392,
   "target" : 34963
},
{
   "buffer" : 14,
   "byteOffset" : 0,
   "byteLength" : 4416,
   "target" : 34962
},{
   "buffer" : 15,
   "byteOffset" : 0,
   "byteLength" : 45792,
   "target" : 34963
},
{
   "buffer" : 16,
   "byteOffset" : 0,
   "byteLength" : 23976,
   "target" : 34962
},
{
   "buffer" : 17,
   "byteOffset" : 0,
   "byteLength" : 15984,
   "target" : 34962
}
,{
   "buffer" : 18,
   "byteOffset" : 0,
   "byteLength" : 4344,
   "target" : 34963
},
{
   "buffer" : 19,
   "byteOffset" : 0,
   "byteLength" : 4368,
   "target" : 34962
},{
   "buffer" : 20,
   "byteOffset" : 0,
   "byteLength" : 45792,
   "target" : 34963
},
{
   "buffer" : 21,
   "byteOffset" : 0,
   "byteLength" : 23976,
   "target" : 34962
},
{
   "buffer" : 22,
   "byteOffset" : 0,
   "byteLength" : 15984,
   "target" : 34962
}
,{
   "buffer" : 23,
   "byteOffset" : 0,
   "byteLength" : 4344,
   "target" : 34963
},
{
   "buffer" : 24,
   "byteOffset" : 0,
   "byteLength" : 4368,
   "target" : 34962
},{
   "buffer" : 25,
   "byteOffset" : 0,
   "byteLength" : 47064,
   "target" : 34963
},
{
   "buffer" : 26,
   "byteOffset" : 0,
   "byteLength" : 24624,
   "target" : 34962
},
{
   "buffer" : 27,
   "byteOffset" : 0,
   "byteLength" : 16416,
   "target" : 34962
}
,{
   "buffer" : 28,
   "byteOffset" : 0,
   "byteLength" : 4392,
   "target" : 34963
},
{
   "buffer" : 29,
   "byteOffset" : 0,
   "byteLength" : 4416,
   "target" : 34962
}],
"accessors" : [
{
   "bufferView" : 0,
   "byteOffset" : 0,
   "componentType" : 5125,
   "count" : 11448,
   "type" : "SCALAR",
   "max" : [ 1997 ],
   "min" : [ 0 ]
},
{
   "bufferView" : 1,
   "byteOffset" : 0,
   "componentType" : 5126,
   "count" : 1998,
   "type" : "VEC3",
   "max" : [ 651.0176, 5280.908, 1160.0 ],
   "min" : [ -2693.2314, 1938.6804, 531.0 ]
},
{
   "bufferView" : 2,
   "byteOffset" : 0,
   "componentType" : 5126,
   "count" : 1998,
   "type" : "VEC2",
   "max" : [ 1, 1 ],
   "min" : [ 0, 0 ]
}
,{
   "bufferView" : 3,
   "byteOffset" : 0,
   "componentType" : 5125,
   "count" : 1086,
   "type" : "SCALAR",
   "max" : [ 363 ],
   "min" : [ 0 ]
},
{
   "bufferView" : 4,
   "byteOffset" : 0,
   "componentType" : 5126,
   "count" : 364,
   "type" : "VEC3",
   "max" : [ 651.0176, 5280.908, 1160.0 ],
   "min" : [ -2693.2314, 1938.6804, 0.0 ]
},{
   "bufferView" : 5,
   "byteOffset" : 0,
   "componentType" : 5125,
   "count" : 11448,
   "type" : "SCALAR",
   "max" : [ 1997 ],
   "min" : [ 0 ]
},
{
   "bufferView" : 6,
   "byteOffset" : 0,
   "componentType" : 5126,
   "count" : 1998,
   "type" : "VEC3",
   "max" : [ 651.0176, 1938.6807, 1705.0 ],
   "min" : [ -2693.2314, -1405.419, 545.0 ]
},
{
   "bufferView" : 7,
   "byteOffset" : 0,
   "componentType" : 5126,
   "count" : 1998,
   "type" : "VEC2",
   "max" : [ 1, 1 ],
   "min" : [ 0, 0 ]
}
,{
   "bufferView" : 8,
   "byteOffset" : 0,
   "componentType" : 5125,
   "count" : 1086,
   "type" : "SCALAR",
   "max" : [ 363 ],
   "min" : [ 0 ]
},
{
   "bufferView" : 9,
   "byteOffset" : 0,
   "componentType" : 5126,
   "count" : 364,
   "type" : "VEC3",
   "max" : [ 651.0176, 1938.6807, 1705.0 ],
   "min" : [ -2693.2314, -1405.419, 0.0 ]
},{
   "bufferView" : 10,
   "byteOffset" : 0,
   "componentType" : 5125,
   "count" : 11766,
   "type" : "SCALAR",
   "max" : [ 2051 ],
   "min" : [ 0 ]
},
{
   "bufferView" : 11,
   "byteOffset" : 0,
   "componentType" : 5126,
   "count" : 2052,
   "type" : "VEC3",
   "max" : [ 651.0176, -1405.419, 1882.0 ],
   "min" : [ -2693.2314, -4751.3906, 588.0 ]
},
{
   "bufferView" : 12,
   "byteOffset" : 0,
   "componentType" : 5126,
   "count" : 2052,
   "type" : "VEC2",
   "max" : [ 1, 1 ],
   "min" : [ 0, 0 ]
}
,{
   "bufferView" : 13,
   "byteOffset" : 0,
   "componentType" : 5125,
   "count" : 1098,
   "type" : "SCALAR",
   "max" : [ 367 ],
   "min" : [ 0 ]
},
{
   "bufferView" : 14,
   "byteOffset" : 0,
   "componentType" : 5126,
   "count" : 368,
   "type" : "VEC3",
   "max" : [ 651.0176, -1405.419, 1882.0 ],
   "min" : [ -2693.2314, -4751.3906, 0.0 ]
},{
   "bufferView" : 15,
   "byteOffset" : 0,
   "componentType" : 5125,
   "count" : 11448,
   "type" : "SCALAR",
   "max" : [ 1997 ],
   "min" : [ 0 ]
},
{
   "bufferView" : 16,
   "byteOffset" : 0,
   "componentType" : 5126,
   "count" : 1998,
   "type" : "VEC3",
   "max" : [ 3995.2666, 5280.908, 2035.0 ],
   "min" : [ 651.01764, 1938.6804, 770.0 ]
},
{
   "bufferView" : 17,
   "byteOffset" : 0,
   "componentType" : 5126,
   "count" : 1998,
   "type" : "VEC2",
   "max" : [ 1, 1 ],
   "min" : [ 0, 0 ]
}
,{
   "bufferView" : 18,
   "byteOffset" : 0,
   "componentType" : 5125,
   "count" : 1086,
   "type" : "SCALAR",
   "max" : [ 363 ],
   "min" : [ 0 ]
},
{
   "bufferView" : 19,
   "byteOffset" : 0,
   "componentType" : 5126,
   "count" : 364,
   "type" : "VEC3",
   "max" : [ 3995.2666, 5280.908, 2035.0 ],
   "min" : [ 651.01764, 1938.6804, 0.0 ]
},{
   "bufferView" : 20,
   "byteOffset" : 0,
   "componentType" : 5125,
   "count" : 11448,
   "type" : "SCALAR",
   "max" : [ 1997 ],
   "min" : [ 0 ]
},
{
   "bufferView" : 21,
   "byteOffset" : 0,
   "componentType" : 5126,
   "count" : 1998,
   "type" : "VEC3",
   "max" : [ 3995.2666, 1938.6807, 2444.0 ],
   "min" : [ 651.01764, -1405.419, 1067.0 ]
},
{
   "bufferView" : 22,
   "byteOffset" : 0,
   "componentType" : 5126,
   "count" : 1998,
   "type" : "VEC2",
   "max" : [ 1, 1 ],
   "min" : [ 0, 0 ]
}
,{
   "bufferView" : 23,
   "byteOffset" : 0,
   "componentType" : 5125,
   "count" : 1086,
   "type" : "SCALAR",
   "max" : [ 363 ],
   "min" : [ 0 ]
},
{
   "bufferView" : 24,
   "byteOffset" : 0,
   "componentType" : 5126,
   "count" : 364,
   "type" : "VEC3",
   "max" : [ 3995.2666, 1938.6807, 2444.0 ],
   "min" : [ 651.01764, -1405.419, 0.0 ]
},{
   "bufferView" : 25,
   "byteOffset" : 0,
   "componentType" : 5125,
   "count" : 11766,
   "type" : "SCALAR",
   "max" : [ 2051 ],
   "min" : [ 0 ]
},
{
   "bufferView" : 26,
   "byteOffset" : 0,
   "componentType" : 5126,
   "count" : 2052,
   "type" : "VEC3",
   "max" : [ 3995.2666, -1405.419, 2156.0 ],
   "min" : [ 651.01764, -4751.3906, 708.0 ]
},
{
   "bufferView" : 27,
   "byteOffset" : 0,
   "componentType" : 5126,
   "count" : 2052,
   "type" : "VEC2",
   "max" : [ 1, 1 ],
   "min" : [ 0, 0 ]
}
,{
   "bufferView" : 28,
   "byteOffset" : 0,
   "componentType" : 5125,
   "count" : 1098,
   "type" : "SCALAR",
   "max" : [ 367 ],
   "min" : [ 0 ]
},
{
   "bufferView" : 29,
   "byteOffset" : 0,
   "componentType" : 5126,
   "count" : 368,
   "type" : "VEC3",
   "max" : [ 3995.2666, -1405.419, 2156.0 ],
   "min" : [ 651.01764, -4751.3906, 0.0 ]
}],

"asset" : {
"version" : "2.0"
}
}