<?xml version="1.0" encoding="UTF-8"?>
<svg width="50" height="50" version="1.1" viewBox="0 0 700 700" xmlns="http://www.w3.org/2000/svg" xmlns:xlink="http://www.w3.org/1999/xlink">
 <g>
  <path d="m327.04 333.2c5.0391 0 9.5195-3.3594 10.641-8.3984l28.559-96.32 36.398 151.76c1.1211 5.0391 6.1602 8.9609 11.199 8.9609 5.6016 0 10.078-3.9219 11.199-8.9609l18.48-77.84h44.801c6.7188 0 11.762-5.0391 11.762-11.762 0-6.7188-5.0391-11.762-11.762-11.762h-54.316c-5.6016 0-10.078 3.9219-11.199 8.9609l-8.9609 38.641-34.719-146.16c-1.1211-5.0391-5.6016-8.9609-11.199-8.9609h-0.55859c-5.0391 0-9.5195 3.3594-11.199 8.3984l-31.359 106.4-23.52-58.801c-1.6797-4.4805-6.1602-7.2812-10.641-7.2812s-8.9609 2.8008-10.641 7.2812l-21.281 51.52h-45.922c-6.7188 0-11.762 5.0391-11.762 11.762 0 6.7188 5.0391 11.762 11.762 11.762h53.199c4.4805 0 8.9609-2.8008 10.641-7.2812l13.441-32.48 25.199 63.281c2.2383 4.4805 6.7188 7.2812 11.758 7.2812z"/>
 </g>
</svg>
