<?xml version="1.0" encoding="UTF-8"?>
<svg width="700pt" height="700pt" version="1.1" viewBox="0 0 700 700" xmlns="http://www.w3.org/2000/svg" xmlns:xlink="http://www.w3.org/1999/xlink">
 <g>
  <path d="m295.6 226.94c-0.47266-0.43359-0.91016-1.0312-1.2852-1.8008-0.27344-0.54688-0.44922-1.1406-0.51953-1.75-0.60938-5.4453 8.9531-13.469 15.934-20.551 1.043-0.98047 2.3711-1.5117 3.8203-1.5 3.9609 0.18359 6.5039 5.3359 3.8984 8.5977-3.6602 4.2695-7.6719 9.2969-11.387 12.934 5.8359 6.6875 11.57 13.477 17.184 20.352 6.5742-5.3555 13.301-10.969 16.641-10.898 4.2109 0.23828 6.6211 6.3477 3.1055 9.3164-8.7227 6.8438-17.492 16.297-22.926 13.539-0.51562-0.23438-1.0117-0.57422-1.4766-1.0586-7.8594-8.8906-15.523-17.957-22.988-27.18z" fill-rule="evenodd"/>
  <path d="m411.79 334.19c10.617 0.95312 11.211 20.875-1.2266 26.34-38.191 15.637-76.766 30.305-115.15 45.457-1.5703 0.50781-2.0586 0.23438-2.9375-0.17188l-20.66-11.074c-2.4375-1.5156-2.2773-5.0977 0.37109-6.3398l135.89-53.637c1.1992-0.44531 2.4336-0.62891 3.7148-0.57422z" fill-rule="evenodd"/>
  <path d="m347.22 349.91c-4.1445 1.6719-21.84 9.1328-27.805 9.0352-3.5117-0.054687-9.6094-6.9141-11.305-8.8984-9.4414-11.043-18.043-26.023-34.906-25.105-13.637 0.73438-37.066 20.594-48.469 4.8359-14.301-19.742-16.625-49.078-18.516-72.676-0.8125-10.164 10.492-17.156 22.883-15.895 6.6992 0.68359 10.613 6.1875 16.543 7.0898 7.6562 1.168 21.066 2.5977 29.391-0.10547 5.2773-1.707 15.227-6.7344 15.227-6.7344 9-3.375 18.668 10.641 2.9102 17.934-14.684 6.6992-29.273 12-43.188 8.1836 1.9102 11.613 3.9609 32.586 3.7852 43.996 6.9844-2.625 14.254-4.4648 21.785-4.4102 18.492 0.55078 32.465 17.785 45.535 32.562 1.3438 1.4922 3.4766 1.9766 5.3242 1.1914 5.2656-2.0742 13.324-4.0117 18.105-2.4102 5.3672 1.8008 9.3516 8.4805 2.6992 11.406" fill-rule="evenodd"/>
  <path d="m246.73 212.61c0 11.309-9.168 20.477-20.477 20.477-11.309 0-20.477-9.168-20.477-20.477 0-11.309 9.168-20.473 20.477-20.473 11.309 0 20.477 9.1641 20.477 20.473" fill-rule="evenodd"/>
  <path d="m461.3 160.62c3.0156 8.5938 11.164 14.324 20.273 14.25 9.1172-0.074219 17.172-5.9258 20.055-14.57 8.8359-26.922 2.5703-59.625-19.477-87.203-24.75-30.957-66.891-29.246-104.03-16.363-6.1367 2.0938-10.004 8.1602-9.3086 14.605 0.69141 6.4414 5.7656 11.551 12.199 12.289 17.824 1.8125 35.602 6.0625 48.906 22.711 14.102 17.637 24.496 36.484 31.383 54.281z" fill-rule="evenodd"/>
 </g>
</svg>
