<?xml version="1.0" encoding="UTF-8"?>
<svg width="50" height="50" version="1.1" viewBox="0 0 1200 1200" xmlns="http://www.w3.org/2000/svg">
    <g>
        <path d="m842.47 193.39c53.34 0 96.406-43.355 96.406-96.695 0.011719-53.34-43.055-96.695-96.406-96.695-53.352 0-96.695 43.355-96.695 96.695 0.011718 53.34 43.355 96.695 96.695 96.695z"/>
        <path d="m1101.8 562.21c-16.824 38.785-52.766 27.098-52.766 27.098l-151.19-57.047c-15.121-5.4258-26.809-17.977-30.793-33.371l-34.246-99.828-53.328 146.9 158.03 164.58c19.68 34.512 17.965 59.891 17.965 59.891v227.05c55.906 0 101.26 45.359 101.26 101.26 0 55.906-45.348 101.26-101.26 101.26-7.9805 0-15.973-0.85156-23.676-2.8438l-332.24-73.871v-49.066l249.24-55.344v-206.8l-167.65-167.43-25.68 175.43c-4.2734 22.246-20.258 43.066-29.375 53.328l-116.38 134.91c-1.7148-1.4297-3.9961-1.4297-6.2773-1.1406l6.2773 1.1406c30.238 23.676 45.926 63.324 36.504 102.97-12.84 54.48-67.598 88.141-121.8 75.301-7.9805-2.0039-15.395-4.5586-22.523-7.9805l-306.21-148.89 11.41-47.641 280.82 3.9961 133.49-154.31 41.352-303.5 86.723-229.62-120.09 69.023-71.594 140.34c-21.684 44.496-60.758 21.109-60.758 21.109-35.363-20.258-21.672-54.48-21.672-54.48l73.297-148.32c19.691-37.656 35.375-43.355 35.375-43.355l171.43-93.84c37.297-25.668 80.652-5.6992 80.652-5.6992l98.699 37.367c49.344 17.688 51.336 45.348 51.336 45.348l61.043 195.38 131.5 46.5c-0.015625-0.007813 35.348 15.113 23.098 54.195zm-154.04 591.86c2.5664 0.27734 5.1367 0.57422 7.7031 0.57422 30.805 0 55.906-25.105 55.906-55.906 0-30.793-25.105-55.895-55.906-55.895v11.699c0 29.363-23.965 53.328-53.34 53.328-25.957 0-46.488-18.828-51.336-43.355l-155.17 34.234zm-520.21-13.965c2.2812 1.1406 4.5586 1.7148 7.1289 2.2695 30.238 7.1289 60.18-11.41 67.32-41.352 5.4102-22.812-3.9961-45.648-21.961-58.477l-22.824 26.52c-19.402 22.246-53.051 24.816-75.301 5.4258-13.117-11.398-18.254-27.672-17.398-43.645l-169.86-2.8477z"/>
    </g>
</svg>
