<?xml version="1.0" encoding="UTF-8"?>
<svg width="50" height="50" version="1.1" viewBox="0 0 700 700" xmlns="http://www.w3.org/2000/svg" xmlns:xlink="http://www.w3.org/1999/xlink">
 <g>
  <path d="m470.3 281.04c-3.2148 0-6.3398-1.6133-8.1562-4.5352-2.7969-4.5039-1.4102-10.406 3.0938-13.199 31.285-19.395 70.777-50.66 88.5-76.801 12.758-18.695 17.184-40.789 12.789-63.91-5.7695-30.41-26.836-61.176-54.973-80.301-46.098-31.316-116.4-34.961-149.65 13.777-18.453 27.203-32.586 76.512-39.082 110.46-0.99609 5.1992-6.0391 8.6289-11.215 7.6172-5.1992-0.99609-8.6094-6.0156-7.6172-11.215 7.1641-37.457 21.977-88.031 42.066-117.65 39.891-58.5 122.58-55.34 176.26-18.84 32.691 22.207 56.25 56.816 63.039 92.578 5.3594 28.23-0.097656 55.289-15.773 78.27-20.617 30.391-63.656 63.336-94.246 82.305-1.5703 0.97266-3.3203 1.4414-5.0391 1.4414zm-48.246-32.914c-3.293 0-6.4844-1.6914-8.2773-4.7266-2.6758-4.5625-1.1562-10.441 3.4141-13.121l10.863-6.3906c23.875-13.73 66.352-44.523 81.949-67.152 1.168-1.9766 2.5078-4.8594 3.6758-8.0586 6.4297-21.84-11.141-48.203-31.922-62.672-20.848-13.973-51.824-20.602-70.426-6.0586-1.9375 1.5039-3.8086 3.5391-5.2734 5.7461-15.059 21.855-28.641 72.582-32.68 100.84l-1.9258 12.559c-0.80469 5.2344-5.6484 8.8281-10.938 8.0117-5.2305-0.80469-8.8242-5.6953-8.0117-10.93l1.9141-12.461c4.2539-29.742 18.18-83.25 35.77-108.78 2.5312-3.8086 5.8008-7.3594 9.3672-10.121 27-21.098 67.145-12.008 93.012 5.3594 25.746 17.922 48.93 51.934 39.309 84.488-1.7617 4.9023-3.6445 8.8984-5.7578 12.434-17.801 25.855-62.367 58.367-88.434 73.355l-10.789 6.3398c-1.5156 0.90234-3.1875 1.332-4.8398 1.332z"/>
  <path d="m446.34 264.75c-3.3125 0-6.5391-1.7188-8.3125-4.7891-2.6523-4.5859-1.0781-10.445 3.5-13.098 39.914-23.07 77.867-57.062 90.141-75.328 8.7188-12.676 11.613-28.234 8.4219-45.074-4.5039-23.797-20.363-46.43-43.535-62.086-23.172-15.777-50.141-22.195-73.938-17.578-16.777 3.2305-30.137 11.617-38.625 24.25-12.383 18.117-30.105 67.18-36.82 111.43-0.79297 5.2383-5.7227 8.8438-10.914 8.0391-5.2344-0.79297-8.832-5.6797-8.0391-10.914 7.3359-48.367 26.422-99.59 39.902-119.32 11.207-16.656 29.281-28.156 50.867-32.316 28.797-5.5312 61.016 1.9375 88.336 20.539 27.344 18.488 46.164 45.605 51.613 74.387 4.0938 21.656 0.042969 42.766-11.402 59.426-13.715 20.391-53.551 56.375-96.402 81.148-1.5156 0.86328-3.1641 1.2812-4.793 1.2812z"/>
  <path d="m464.73 310.23c-4.8984 0-9.707-1.4766-13.891-4.3242l-162.3-110.23c-5.4766-3.9062-9.0469-9.4727-10.266-15.797-1.2539-6.543 0.17188-13.105 4.0117-18.48 6.8906-10.836 22.129-14.027 33.711-6.6719 0.082031 0.054688 0.16406 0.10938 0.24609 0.17188l162.31 110.55c11.293 8.0586 14.023 23.367 6.2539 34.254-3.4336 5.1523-8.9492 8.8164-15.355 10.062-1.5742 0.30469-3.1484 0.46094-4.7227 0.46094zm-162.4-140.32c-1.6055 0-3.1758 0.66406-4.1602 2.207-1.2617 1.7891-1.25 3.2031-1.0664 4.1562 0.28125 1.4648 1.1328 2.7695 2.3945 3.6719l162.12 110.1c1.2656 0.86328 2.7852 1.1836 4.1719 0.90625 1.3438-0.26562 2.5-1.0234 3.2461-2.1406 1.793-2.5273 1.0781-5.8438-1.4414-7.6445l-161.99-110.33c-0.97656-0.59375-2.1328-0.92969-3.2734-0.92969z"/>
  <path d="m458.44 342.17c-4.9531 0-9.7539-1.5195-13.848-4.457l-183.23-124.8c-5.2227-3.3125-8.9766-8.7305-10.32-15.074-1.3477-6.3789-0.039063-13.16 3.5898-18.609 7.6484-11.215 22.895-14.25 34.062-6.8125 0.027344 0.015626 0.054688 0.03125 0.078126 0.054688l183.4 124.93c11.031 7.0352 14.199 22.289 6.8359 33.848-4.0508 5.7031-9.6094 9.2812-15.938 10.488-1.5547 0.30078-3.1055 0.44141-4.6367 0.44141zm-183.36-154.69c-1.6562 0-3.375 0.75-4.5469 2.4648-0.73047 1.0938-1.0117 2.5586-0.72656 3.9297 0.1875 0.89062 0.71094 2.1406 2.1016 3.0273l183.65 125.09c1.5391 1.1133 2.9609 1.0586 3.9062 0.91406 1.4648-0.28516 2.7734-1.1328 3.6641-2.3867 1.2227-1.9492 1.1797-5.4062-1.4961-7.1211l-183.59-125.05c-0.85937-0.5625-1.9023-0.86719-2.9609-0.86719z"/>
  <path d="m441.59 366.79c-4.9961 0-9.8203-1.5312-13.926-4.4688l-183.22-124.47c-5.4727-3.9062-9.043-9.4727-10.254-15.797-1.2539-6.543 0.17188-13.105 4.0117-18.48 7.1641-10.777 22.367-13.875 33.703-6.6719 0.089844 0.054687 0.17188 0.10937 0.25391 0.17187l183.39 124.93c11.293 8.0703 14.012 23.379 6.2539 34.266-3.4336 5.1406-9.2227 8.918-15.719 10.105-1.5039 0.27344-3.0117 0.41797-4.5 0.41797zm-183.14-154.63c-1.7734 0-3.4727 0.80859-4.4727 2.3125-1.8047 2.5391-1.0898 5.8555 1.4297 7.6562l183.21 124.48c1.6406 1.1562 3.2266 1.0586 4.0195 0.91406 1.4297-0.25391 2.6641-1.0352 3.4023-2.1367 1.793-2.5312 1.0664-5.8555-1.4414-7.6602l-183.07-124.69c-0.96484-0.58984-2.0312-0.87109-3.0781-0.87109z"/>
  <path d="m424.8 391.5c-4.668 0-9.3672-1.3203-13.508-4.082l-183.79-124.97c-10.887-7.2578-13.859-22.855-6.418-34.012 3.9531-5.543 9.5156-9.1133 15.84-10.324 6.5039-1.25 13.016 0.15234 18.367 3.9336l183.32 124.55c11.074 7.9141 14.012 23.117 6.7383 34.012-4.8125 7.0781-12.641 10.887-20.555 10.887zm-183.28-154.65c-0.36328 0-0.69922 0.039062-0.99219 0.09375-1.4648 0.28125-2.7695 1.1289-3.6641 2.3867-1.4141 2.125-0.84375 5.7578 1.3477 7.2227l183.8 124.97c2.1133 1.4102 5.5156 1.2227 7.4414-1.6172 1.5195-2.2773 0.71484-5.7773-1.793-7.5859l-183.22-124.47c-0.058593-0.042968-0.12109-0.089844-0.17969-0.13281-0.95312-0.67578-1.9258-0.87109-2.7461-0.87109z"/>
  <path d="m397.41 408.96c-4.9531 0-9.7422-1.5195-13.848-4.4453l-162.12-110.11c-11.305-8.0742-14.023-23.387-6.2461-34.273 3.3945-5.1094 8.8828-8.7852 15.262-10.09 6.4336-1.293 12.922-0.058593 18.301 3.5352 0.027344 0.015625 0.050782 0.03125 0.070313 0.050781l162.64 110.55c10.941 7.8164 13.738 23.016 6.418 34.004-3.9531 5.5352-9.5117 9.1133-15.84 10.336-1.5508 0.29297-3.1016 0.4375-4.6328 0.4375zm-162.02-140.24c-0.43359 0-0.81641 0.050781-1.0938 0.10938-0.80859 0.16406-2.3125 0.66406-3.3281 2.1953-1.1484 1.6172-1.1406 3.0391-0.95703 3.9844 0.28125 1.4648 1.1289 2.7695 2.3867 3.6641l162.12 110.11c1.5625 1.0898 2.9844 1.0898 3.918 0.90234 1.4648-0.27344 2.7734-1.1211 3.6641-2.3867 1.4766-2.2227 0.83594-5.6484-1.5977-7.3867l-162.41-110.4c-0.94922-0.625-1.9219-0.79297-2.7031-0.79297z"/>
  <path d="m263.04 560c-29.402 0-60.156-9.5195-85.363-26.594-32.691-22.215-56.258-56.832-63.047-92.586-5.3555-28.234 0.097656-55.301 15.773-78.285 20.102-29.633 61.652-62.082 93.832-82.555 4.4727-2.8633 10.391-1.5195 13.23 2.9375 2.8438 4.4648 1.5234 10.391-2.9375 13.23-29.164 18.559-69.781 49.906-88.273 77.172-12.758 18.703-17.176 40.793-12.789 63.922 5.7734 30.402 26.836 61.18 54.977 80.301 23.711 16.051 52.988 24.559 80.246 23.148 20.816-1.0352 49.691-8.2656 69.055-36.898 17.59-25.934 32.473-74.18 39.43-110.49 1-5.1953 5.9336-8.6406 11.215-7.6055 5.1953 0.99219 8.6094 6.0117 7.6055 11.215-6.7812 35.445-21.949 87.52-42.379 117.64-18.559 27.441-48.391 43.535-83.98 45.285-2.1836 0.11328-4.3867 0.16797-6.5938 0.16797zm-0.56641-52.77c-19.312 0-39.637-7.1758-55.176-17.984-25.852-17.602-49.188-51.48-39.16-84.164 1.1992-4.4453 3.2852-8.8828 6.1055-12.91 17.066-25.262 62.484-58.406 87.781-72.816l11.168-6.3828c4.6016-2.6289 10.445-1.0234 13.082 3.5664 2.625 4.5898 1.0352 10.445-3.5625 13.078l-11.184 6.3945c-24.68 14.055-66.715 45.164-81.488 67.023-1.6172 2.3125-2.7891 4.8086-3.4844 7.3633-6.875 22.422 11.18 49.137 31.609 63.051 20.258 14.09 51.676 21.102 70.133 6.4727 2.418-1.707 4.0781-3.5234 5.3984-5.7148 15.445-22.445 28.492-72.496 32.934-101.03l1.9141-12.438c0.80469-5.2383 5.6797-8.8398 10.93-8.0234 5.2305 0.80469 8.8242 5.7031 8.0117 10.93l-1.9141 12.461c-4.3984 28.266-17.992 82.676-35.77 108.47-2.3828 4.0078-5.8789 7.7812-10.062 10.711-10.555 8.375-23.66 11.941-37.266 11.941z"/>
  <path d="m261.48 533.35c-22.82 0-47.234-7.2109-69.094-21.992-49.441-33.66-67.492-93.664-40.27-133.77 14.215-20.648 54.273-56.645 96.75-81.203 4.6133-2.6289 10.457-1.0781 13.098 3.5 2.6484 4.5898 1.0781 10.445-3.5 13.098-39.609 22.895-77.828 56.977-90.52 75.422-21.262 31.328-5.4805 79.387 35.203 107.09 40.754 27.551 91.418 24.504 112.91-6.7695 12.344-18.074 30.066-67.266 36.758-111.67 0.78516-5.2305 5.6758-8.8594 10.91-8.0469 5.2305 0.79297 8.8398 5.668 8.0469 10.91-7.4062 49.172-26.105 99.441-39.902 119.64-15.324 22.289-41.586 33.793-70.395 33.793z"/>
  <path d="m426.71 459.75c-2.5 0-4.9648-0.27344-7.3984-0.81641-19.461-4.3047-33.617-25.055-42.07-61.676-1.1992-5.1523 2.0156-10.305 7.1758-11.492 5.1406-1.2539 10.305 2.0156 11.492 7.1758 6.4727 27.98 16.258 44.777 27.539 47.277 10.766 2.332 25.547-7.8047 41.84-28.652 28.871-37.129 48.566-51.449 65.539-47.73 17.668 3.8086 24.82 25.492 28.664 41.477 1.2344 5.1523-1.9375 10.324-7.0781 11.57-5.1719 1.168-10.336-1.9258-11.57-7.0781-5.5352-23.039-11.68-26.715-14.055-27.234-3.6992-0.71484-15.816 1.4766-46.387 40.781-18.895 24.191-36.914 36.398-53.691 36.398z"/>
 </g>
</svg>
