<?xml version="1.0" encoding="UTF-8"?>
<svg width="50" height="50" version="1.1" viewBox="0 0 700 700" xmlns="http://www.w3.org/2000/svg">
    <g stroke-width="1.297">
        <path d="m244.58 335.35c0 36.88-56.071 36.88-56.071 0v-95.359c0-10.751 6.0546-20.089 14.937-24.79l100.85-63.845c7.154-4.5043 67.978-3.425 75.543 9.6367l59.593 102.69 44.637-17.712c34.143-13.539 54.729 38.369 20.591 51.912l-67.046 26.605c-13.037 5.173-27.643-0.16721-34.457-11.962l-19.592-33.673v115.81l80.757 106.78c3.0805 4.0786 4.869 8.7247 5.4466 13.457l23.145 126.21c6.6271 36.16-48.35 46.233-54.978 10.077l-22.228-121.22-73.07-96.614-11.689 99.903c-0.45599 3.9773-1.7226 7.6658-3.6176 10.913l-59.208 114.43c-16.851 32.7-66.575 7.0729-49.718-25.627l57.506-111.15 15.362-131.26v-164.82l-46.678 29.548z"/>
        <path d="m398.86 74.833c0 30.242-24.517 54.755-54.76 54.755-30.243 0-54.76-24.512-54.76-54.755 0-30.243 24.517-54.76 54.76-54.76 30.243 0 54.76 24.517 54.76 54.76"/>
    </g>
</svg>
