<?xml version="1.0" encoding="UTF-8"?>
<svg width="50" height="50" version="1.1" viewBox="0 0 700 700" xmlns="http://www.w3.org/2000/svg" xmlns:xlink="http://www.w3.org/1999/xlink">
 <g>
  <path d="m136.42 258.5c-26.816 0-52.535 10.652-71.496 29.613-18.961 18.965-29.613 44.684-29.613 71.5 0 26.812 10.652 52.531 29.613 71.496 18.961 18.961 44.68 29.613 71.496 29.613s52.535-10.652 71.496-29.613c18.961-18.965 29.617-44.684 29.617-71.496 0-26.816-10.656-52.535-29.617-71.5-18.961-18.961-44.68-29.613-71.496-29.613zm36.246 81.824-64.945 89.754c-0.36719 0.6875-1.2188 0.94922-1.9062 0.58203-0.6875-0.36328-0.94922-1.2188-0.58203-1.9062l22.012-65.098c0.14844-0.42969 0.082031-0.90625-0.17969-1.2773-0.26172-0.37109-0.6875-0.58984-1.1445-0.58984h-24.812c-0.47266 0-0.91797-0.23047-1.1953-0.61328-0.27734-0.38672-0.35156-0.87891-0.20312-1.332l23.332-70.699c0.20312-0.60156 0.76562-1.0117 1.4023-1.0117h42.621c0.5 0.007812 0.96484 0.26562 1.2344 0.69141 0.26562 0.42578 0.30078 0.95312 0.089844 1.4102l-23.332 45.891-0.003906-0.003906c-0.25391 0.44141-0.25 0.98047 0.007812 1.4141 0.25781 0.4375 0.73047 0.69922 1.2383 0.6875h24.656c0.57812-0.26562 1.2617-0.10547 1.6641 0.39063 0.40234 0.49219 0.42188 1.1953 0.046875 1.7109z" fill-rule="evenodd"/>
  <path d="m700 362.73v-6.6094l-2.7227-1.7109-0.46484-7.7773 2.4883-2.1016c0-2.1797-0.54297-4.3555-0.85547-6.5352l-3.0352-1.3984c-0.41406-2.4375-0.88281-4.8477-1.3984-7.2344l2.2539-2.4102c-0.54297-2.1016-1.0898-4.2773-1.7109-6.3789l-3.1875-1.0117c-0.69922-2.332-1.4766-4.668-2.332-6.9219l1.8672-2.7227c-0.77734-2.0234-1.6328-4.043-2.4883-6.0664l-3.2656-0.62109c-0.98438-2.1797-2.0742-4.3555-3.2656-6.5352l1.5547-2.957-3.3438-5.7539h-3.4258c-1.3203-2.1016-2.6445-4.1211-4.1211-6.1445l1.168-3.1094c-1.3203-1.7891-2.6445-3.5-4.043-5.2109h-3.2656c-1.5547-1.9453-3.1875-3.7344-4.8203-5.5234l0.69922-3.2656-4.668-4.668-3.1875 0.69922c-1.8672-1.6328-3.6562-3.2656-5.6016-4.8203v-3.2656l-5.2109-4.043-3.1094 1.168c-2.0234-1.4766-4.043-2.8008-6.1445-4.1211v-3.2656l-5.7539-3.3438-2.957 1.5547c-2.1016-1.168-4.3555-2.2539-6.5352-3.2656l-0.62109-3.2656-6.0664-2.4883-2.7227 1.8672c-2.2539-0.85547-4.5898-1.6328-6.9219-2.332l-1.0117-3.1875-6.3789-1.7109-2.4102 2.2539c-2.4375-0.57031-4.8477-1.0352-7.2344-1.3984l-1.3984-3.0352-6.2305-0.39844-2.1016 2.5664-7.7773-0.54297-1.7109-2.7227h-6.5312l-1.7891 2.7227-7.3125 0.54297-1.8633-2.5664-6.5352 0.85547-1.3984 3.0352c-2.4102 0-4.8203 0.85547-7.1562 1.3984l-2.4883-2.2539-6.3789 1.7109-0.93359 3.1875c-2.2539 0.69922-4.4336 1.3984-6.6094 2.2539l-38.891-85.555c-1.1211-2.4414-3.1602-4.3438-5.6797-5.2891l-1.2461-2.6445 12.754-4.3555h0.003906c1.7891-0.61719 3.1953-2.0195 3.8125-3.8125 0.53906-1.8008 0.22266-3.7461-0.85547-5.2891l-4.5898-6.5352v0.003906c0.49219-3.8242-1.8906-7.4297-5.5977-8.4766l-15.012-4.5117c-2.0625-0.60937-4.2852-0.375-6.1719 0.65625-1.8906 1.0273-3.293 2.7617-3.9023 4.8281-1.2656 4.293 1.1875 8.8047 5.4844 10.07l15.012 4.5117-11.59 3.9648c-1.6523 0.58203-2.9609 1.8633-3.5781 3.5-1.5273 2.043-1.8281 4.7539-0.77734 7.0781l3.1094 7c-0.40625 1.043-0.61719 2.1484-0.62109 3.2656l-190.63 69.379-3.1875-9.5664c-0.96875-2.9883-3.3125-5.332-6.3008-6.3008l-20.145-59.887c5.1875-1.8672 10.52-3.2969 15.945-4.2773 9.0078-1.5977 18.152-2.2734 27.301-2.0234 5.2109 0 8.6328 0 8.6328-5.5234 0-5.5234-9.8789-7.7773-28.465-7.7773-18.59 0-26.445 1.8672-45.035 1.8672-12.91 0-16.801-1.8672-24.266-1.9453h-0.003906c-1.7031 0.0625-3.3164 0.80469-4.4688 2.0586-1.1562 1.2578-1.7578 2.9258-1.6758 4.6328 0.042968 4.7539 2.3906 9.1914 6.3008 11.898 6.8125 5.5352 15.723 7.7852 24.344 6.1445 3.3242-0.32031 6.6211-0.83984 9.8789-1.5547l20.301 60.512c-1.7695 2.5703-2.2305 5.8242-1.2461 8.7891l5.0547 15.012-25.977 26.52c-1.3203-1.168-2.6445-2.4102-4.043-3.5v-3.4219c-1.7109-1.3984-3.5-2.7227-5.2891-4.043l-3.1875 1.2461c-1.9453-1.3984-3.9648-2.7227-6.0664-4.043v-3.4219l-5.6797-3.3438-3.0352 1.7109c-2.1797-1.168-4.3555-2.2539-6.6094-3.2656l-0.46484-3.4219-6.0664-2.4883-2.8008 2.0234c-2.2539-0.85547-4.5898-1.6328-6.9219-2.332l-0.93359-3.3438-6.3789-1.7109-2.4883 2.4102-7.2344-1.3984-1.3203-3.1875-6.0703-1.0234-2.1797 2.7227-7.3125-0.54297-1.4727-2.7227h-6.6094l-1.7109 2.8789-7.3906 0.54297-2.4102-2.8789-6.5352 0.85547-1.3984 3.1875c-2.4102 0.39062-4.8203 0.85547-7.1562 1.3984l-2.4883-2.4102-6.3789 1.7109-0.93359 3.3438c-2.332 0.69922-4.668 1.4766-6.9219 2.332l-2.8008-2.0234-6.0664 2.4883-0.54297 3.4219c-2.1797 1.0117-4.4336 2.1016-6.5352 3.2656l-3.0352-1.7109-5.7539 3.3438v3.4219l-6.1445 4.043-3.1875-1.2461-5.2109 4.043 0.39063 3.4219c-1.8672 1.5547-3.7344 3.1094-5.5234 4.8203l-3.3438-0.85547-4.668 4.668 0.85547 3.3438c-1.7109 1.7891-3.2656 3.6562-4.8203 5.5234h-3.4219c-1.3984 1.7109-2.7227 3.4219-4.043 5.2109l1.2461 3.1875c-1.3984 2.0234-2.7227 4.043-4.043 6.1445l-3.4297 0.015625-3.3438 5.7539 1.7109 3.0352c-1.168 2.1016-2.2539 4.3555-3.2656 6.5352l-3.4219 0.54297c-0.85547 2.0234-1.7109 4.043-2.4883 6.0664l2.0234 2.8008c-0.85547 2.2539-1.6328 4.5898-2.332 6.9219l-3.3438 0.93359c-0.62109 2.1016-1.168 4.2773-1.7109 6.3789l2.4102 2.4883c-0.54297 2.4102-1.0117 4.7461-1.3984 7.1562l-3.1875 1.3984c0 2.1797-0.62109 4.3555-0.85547 6.5352l2.7227 2.1797c0 2.4102 0 4.8203-0.54297 7.3125l-2.9648 1.2383v6.6094l2.8789 1.7891c0 2.4102 0 4.8984 0.54297 7.3125l-2.7227 2.1797c0 2.1797 0.54297 4.3555 0.85547 6.5352l3.1875 1.3203c0.41406 2.3867 0.88281 4.7969 1.3984 7.2344l-2.4102 2.4883c0.54297 2.1016 1.0898 4.2773 1.7109 6.3789l3.3438 0.93359c0.69922 2.332 1.4766 4.668 2.332 6.9219l-2.0234 2.8008c0.77734 2.0234 1.6328 4.043 2.4883 6.0664l3.4219 0.54297c0.98438 2.1797 2.0742 4.3555 3.2656 6.5352l-1.7109 3.0352c1.0898 1.9453 2.1797 3.8125 3.3438 5.6797l3.4297-0.007813c1.3203 2.1016 2.6445 4.1211 4.043 6.0664l-1.2461 3.2656c1.3203 1.7109 2.6445 3.5 4.043 5.2109h3.4219c1.5547 1.8672 3.1094 3.7344 4.8203 5.5234l-0.85547 3.3438 4.668 4.668 3.3438-0.85547 5.5234 4.8203-0.39062 3.4219 5.2109 4.043 3.1875-1.3203c2.0234 1.4766 4.043 2.8008 6.1445 4.1211v3.4219l5.7539 3.3438 3.0352-1.7109c2.1016 1.168 4.3555 2.2539 6.5352 3.2656l0.54297 3.3438c2.0234 0.93359 4.043 1.7891 6.0664 2.5664l2.8008-2.0234c2.2539 0.85547 4.5898 1.6328 6.9219 2.332l0.93359 3.2656c2.1016 0.62109 4.2773 1.2461 6.3789 1.7109l2.4883-2.332c2.332 0.54297 4.7461 1.0117 7.1562 1.3984l1.3984 3.1875 6.5352 0.85547 2.1016-2.7227c2.4883 0 4.8984 0 7.3906 0.46484l1.7109 2.957h6.6094l1.7891-2.957c2.4102 0 4.8984 0 7.3125-0.46484l2.1797 2.7227 6.5352-0.85547 1.3203-3.1875c2.3867-0.36328 4.7969-0.82812 7.2344-1.3984l2.4883 2.332c2.1016-0.46484 4.1992-1.0898 6.3789-1.7109l0.93359-3.2656c2.332-0.69922 4.668-1.4766 6.9219-2.332l2.8008 2.0234c2.0234-0.77734 4.043-1.6328 6.0664-2.5664l0.46484-3.3438c2.2539-1.0117 4.4336-2.1016 6.6094-3.2656l3.0352 1.7109 5.6797-3.3438v-3.4219c2.1016-1.3203 4.1211-2.6445 6.0664-4.1211l3.1875 1.3203c1.7891-1.3203 3.5781-2.6445 5.2891-4.043v-3.4219l5.5234-4.8203 3.3438 0.85547 4.668-4.668-0.85547-3.3438c1.6328-1.7891 3.2656-3.6562 4.8203-5.5234h3.4219c1.3984-1.7109 2.7227-3.5 4.043-5.2109l-1.3203-3.2656c1.4766-1.9453 2.8008-3.9648 4.1211-6.0664h3.4219c1.168-1.8672 2.2539-3.7344 3.2656-5.6797l-1.6328-3.0352c1.1406-2.1797 2.2305-4.3555 3.2656-6.5352l3.3438-0.54297c0.93359-2.0234 1.7891-4.043 2.5664-6.0664l-2.0234-2.8008c0.77734-2.2539 1.6328-4.5898 2.332-6.9219l3.2656-0.93359c0.62109-2.1016 1.2461-4.2773 1.7109-6.3789l-2.332-2.4883 0.69922-3.5781 42.234 4.8984h2.5664l0.007813 0.007813c2.5078-0.1875 4.8438-1.3281 6.5352-3.1914l158.9-192.11 20.457 44.879c-1.9453 1.0117-3.8125 2.1016-5.6797 3.2656v3.2656c-2.1016 1.3203-4.1211 2.6445-6.1445 4.1211l-3.0352-1.168c-1.7891 1.3203-3.5781 2.6445-5.2891 4.043v3.2656l-5.5234 4.8203-3.2656-0.69922-4.668 4.668 0.77734 3.2656c-1.7109 1.7891-3.3438 3.5781-4.8984 5.5234h-3.2656c-1.3984 1.7109-2.7227 3.4219-4.043 5.2109l1.168 3.1094c-1.3984 2.0234-2.8008 4.043-4.1211 6.1445h-3.2656c-1.168 1.9453-2.2539 3.8125-3.2656 5.7539l1.4766 2.957-3.2656 6.5352-3.1875 0.62109c-0.93359 2.0234-1.7891 4.043-2.5664 6.0664l1.8672 2.7227c-0.77734 2.2539-1.6328 4.5898-2.332 6.9219l-3.1094 1.0117c-0.62109 2.1016-1.2461 4.2773-1.7109 6.3789l2.1797 2.4102c-0.57031 2.4375-1.0352 4.8477-1.3984 7.2344l-3.0352 1.3984c0 2.1797-0.62109 4.3555-0.85547 6.5352l2.5664 2.1016c0 2.4883-0.39062 4.8984-0.46484 7.7773l-2.8008 1.7109v6.6094l2.8008 1.7891c0 2.4883 0 4.8984 0.46484 7.3125l-2.5664 2.1797c0 2.1797 0.54297 4.3555 0.85547 6.5352l3.0352 1.3984c0 2.4102 0.85547 4.8203 1.3984 7.1562l-2.1797 2.4883c0.46484 2.1016 1.0898 4.2773 1.7109 6.3789l3.1094 0.93359c0.69922 2.4102 1.5547 4.668 2.332 7l-1.8672 2.7227c0.77734 2.0234 1.6328 4.043 2.5664 6.0664l3.1875 0.54297 3.2656 6.6094-1.4766 2.957c1.0117 1.9453 2.1016 3.8125 3.2656 5.6797h3.2656c1.3203 2.1016 2.7227 4.1211 4.1211 6.1445l-1.168 3.1094c1.3203 1.7109 2.6445 3.5 4.043 5.2109h3.2656c1.5547 1.8672 3.1875 3.7344 4.8984 5.5234l-0.77734 3.2656 4.668 4.668 3.2656-0.77734c1.7891 1.7109 3.6562 3.3438 5.5234 4.8984v3.2656c1.7109 1.3984 3.5 2.7227 5.2891 4.043l3.0352-1.168c2.0234 1.3984 4.043 2.8008 6.1445 4.1211v3.2656l5.6797 3.3438 2.957-1.5547c2.1797 1.168 4.3555 2.2539 6.6094 3.2656l0.54297 3.1875c2.0234 0.93359 4.043 1.7891 6.0664 2.5664l2.7227-1.8672c2.332 0.88281 4.668 1.6602 7 2.332l0.93359 3.1094c2.1797 0.62109 4.2773 1.2461 6.3789 1.7109l2.4883-2.1797c2.332 0.54297 4.7461 1.0117 7.1562 1.3984l1.3984 3.0352 6.5352 0.85547 2.1797-2.5664c2.4102 0 4.8203 0.39062 7.3125 0.46484l1.4727 2.1172h6.6094l1.7109-2.8008c2.4883 0 4.8984 0 7.7773-0.46484l2.1016 2.5664 6.5352-0.85547 1.3984-3.0352c2.4375-0.41406 4.8477-0.88281 7.2344-1.3984l2.4102 2.1797c2.1016-0.46484 4.2773-1.0898 6.3789-1.7109l1.0117-3.1094c2.332-0.69922 4.668-1.4766 6.9219-2.332l2.7227 1.8672c2.0234-0.77734 4.043-1.6328 6.0664-2.5664l0.62109-3.1875c2.1797-1.0117 4.4336-2.1016 6.5352-3.2656l2.957 1.5547 5.7539-3.3438v-3.4336c2.1016-1.3203 4.1211-2.7227 6.1445-4.1211l3.1094 1.168 5.2109-4.043v-3.2656c1.9453-1.5547 3.7344-3.1875 5.6016-4.8984l3.1875 0.77734 4.668-4.668-0.69922-3.2656c1.6328-1.7891 3.2656-3.6562 4.8203-5.5234h3.2656c1.3984-1.7109 2.7227-3.5 4.043-5.2109l-1.168-3.1094c1.4766-2.0234 2.8008-4.043 4.1211-6.1445h3.2656c1.168-1.8672 2.2539-3.7344 3.3438-5.6797l-1.5547-2.957c1.168-2.1797 2.2539-4.3555 3.2656-6.6094l3.2656-0.54297c0.85547-2.0234 1.7109-4.043 2.4883-6.0664l-1.8672-2.7227c0.85547-2.332 1.6328-4.5898 2.332-7l3.1875-0.93359c0.62109-2.1016 1.168-4.2773 1.7109-6.3789l-2.2539-2.4883c0.54297-2.332 1.0117-4.7461 1.3984-7.1562l3.0352-1.3984c0-2.1797 0.62109-4.3555 0.85547-6.5352l-2.4883-2.1797 0.46484-7.3125zm-563.58 105.86c-28.879 0-56.574-11.473-76.996-31.895-20.422-20.418-31.891-48.117-31.891-76.996s11.469-56.574 31.891-76.996c20.422-20.418 48.117-31.891 76.996-31.891s56.574 11.473 76.996 31.891c20.422 20.422 31.895 48.117 31.895 76.996s-11.473 56.578-31.895 76.996c-20.422 20.422-48.117 31.895-76.996 31.895zm132.92-97.145c0-2.332 0-4.7461 0.46484-7.1562l2.957-1.7891v-6.6094l-2.957-1.7109c0-2.4883 0-4.8984-0.46484-7.3125l2.7227-2.1797c0-2.1797-0.54297-4.3555-0.85547-6.5352l-3.1875-1.3984c-0.39063-2.4102-0.85547-4.7461-1.3984-7.1562l2.332-2.4883c-0.46484-2.1016-1.0898-4.2773-1.7109-6.3789l-3.2656-0.93359c-0.69922-2.332-1.5547-4.668-2.332-6.9219l2.0234-2.8008c-0.77734-2.0234-1.6328-4.043-2.5664-6.0664l-3.3438-0.54297c-1.0117-2.1797-2.1016-4.4336-3.2656-6.5352l1.6328-3.0352c-1.0117-1.9453-2.1016-3.8125-3.2656-5.7539h-3.4219c-1.3203-2.1016-2.6445-4.1211-4.1211-6.1445l1.3203-3.1875c-1.3203-1.7891-2.6445-3.5-4.043-5.2109h-3.4219c-1.168-1.3984-2.332-2.8008-3.5781-4.1211l21.07-21.152 42.465 126.78zm160.92-150.34c-12.434-3.2383-25.656 0.27344-34.844 9.2539-17.656 19.289-73.5 80.891-90.457 99.711l-30.02-89.52 191.88-70 1.7891 4.043zm133.31 248.11c-32.527 0.035156-63.395-14.359-84.273-39.301-20.879-24.941-29.617-57.859-23.855-89.875 5.7578-32.012 25.422-59.82 53.684-75.922l45.344 99.555c1.6523 3.5391 5.1953 5.8086 9.1016 5.832 1.418-0.011719 2.8164-0.30469 4.1211-0.85547 5.0078-2.293 7.2305-8.1953 4.9805-13.223l-45.27-99.555c30.512-10.664 64.172-7.3359 92 9.0977 27.832 16.43 47.008 44.297 52.406 76.16 5.4023 31.867-3.5156 64.492-24.375 89.176-20.863 24.688-51.543 38.922-83.863 38.91z" fill-rule="evenodd"/>
 </g>
</svg>
