<?xml version="1.0" encoding="UTF-8"?>
<svg width="50" height="50" version="1.1" viewBox="0 0 700 700" xmlns="http://www.w3.org/2000/svg" xmlns:xlink="http://www.w3.org/1999/xlink">
 <g>
  <path d="m188.26 242.07c-14.066 0-25.469-11.75-25.469-25.809v-77.68c0-14.066 11.402-25.469 25.469-25.469 14.066 0 25.469 11.402 25.469 25.469v77.676c0 14.062-11.406 25.812-25.469 25.812z"/>
  <path d="m287.16 65.996c0 19.926-16.156 36.082-36.082 36.082s-36.082-16.156-36.082-36.082c0-19.926 16.156-36.082 36.082-36.082s36.082 16.156 36.082 36.082"/>
  <path d="m572.58 278.86-13.234 7.6367c5.1406 8.8984 2.0781 20.324-6.8203 25.465l-138.2 79.789c0.33203-0.76172 0.66797-1.5234 0.91406-2.3477 2.5156-8.4727-0.80078-17.227-7.543-22.164l67.633-39.043c16.195-9.3477 21.762-30.133 12.414-46.336l-13.234 7.6367c5.1367 8.8984 2.0703 20.324-6.8281 25.465l-78.668 45.422-11.492-3.4102-15.281-94.555c-1.5625-9.6602-9.7656-16.844-19.543-17.113l-61.059-1.707v-69.727l34.293 34.293c3.4844 3.4766 8.043 5.2188 12.605 5.2188s9.1289-1.7422 12.605-5.2188l40.75-40.746c6.9648-6.9609 6.9648-18.25 0-25.211-6.9609-6.9609-18.246-6.9609-25.211 0l-28.145 28.145-54.453-54.461c-2.8398-2.832-6.4023-4.4531-10.086-4.9766-3.9297-1.8359-8.3008-2.8945-12.918-2.8945-16.879 0-30.559 13.688-30.559 30.559v187.83l-57.121 86.574c-3.0391 4.6094-4.082 10.258-2.8789 15.652 1.1992 5.3945 4.543 10.062 9.2578 12.945l30.238 18.504c3.3164 2.0273 6.9883 3 10.613 3 0.18359 0 0.37109-0.027344 0.55469-0.035156l-99.82 57.629 7.6367 13.234 241.57-139.47 29.344 8.7031c1.1602 0.33984 2.3242 0.54688 3.4883 0.67578l-134.68 77.762 7.6367 13.234 293.8-169.62c16.203-9.3555 21.77-30.141 12.418-46.336zm-344.54 174.46c5.8516-9.5977 2.832-22.121-6.7578-27.988l-12.258-7.5 48.875-74.082c2.1953-3.332 3.3672-7.2344 3.3672-11.223v-48.73l63.438 1.7734 14.633 90.551c0.62109 3.8516 2.3203 7.3516 4.793 10.176z"/>
 </g>
</svg>
