<?xml version="1.0" encoding="UTF-8"?>
<svg width="50" height="50" version="1.1" viewBox="0 0 700 700" xmlns="http://www.w3.org/2000/svg" xmlns:xlink="http://www.w3.org/1999/xlink">
 <g>
  <path d="m216.59 330.74c-0.35156 0-0.70313-0.027344-1.0508-0.082032-16.867-2.668-58.18-12.34-77.43-44.438-12.031-20.066-13.027-44.973-2.9648-74.023h0.003906c1.1875-3.4219 4.8867-5.2695 8.3359-4.1641 0.82031 0.26562 83.469 26.352 198.48 26.352 115.45 0 219.84-21.57 220.88-21.789h0.003906c1.7422-0.36328 3.5547-0.015625 5.0391 0.96875 1.4844 0.98047 2.5156 2.5156 2.8633 4.2617 0.12891 0.64062 3.0586 15.957-1.9922 36.516-4.6172 18.809-17.07 45.895-50.172 68.125-1.4883 1.0039-3.3164 1.3633-5.0703 1-1.7578-0.35938-3.293-1.4141-4.2656-2.9219-0.96875-1.5078-1.293-3.3438-0.89453-5.0898 0.39844-1.75 1.4844-3.2617 3.0117-4.2031 44.234-29.832 47.559-68.801 46.938-84.18-25.859 4.8828-117.06 20.645-216.34 20.645-98.801 0-174.34-18.977-196.16-25.105-6.6172 22.504-5.3672 41.57 3.7344 56.754 16.816 28.043 56.359 36.27 68.074 38.129l-0.003906-0.003906c3.4414 0.53906 5.8828 3.6328 5.6133 7.1055-0.26953 3.4688-3.1641 6.1445-6.6445 6.1484z"/>
  <path d="m189.85 433.43c-1.6836 0-3.3047-0.63281-4.5391-1.7773l-40.5-37.59h0.003906c-1.4023-1.3008-2.1797-3.1445-2.1289-5.0547 0.046875-1.9141 0.91797-3.7148 2.3828-4.9414l49.391-41.434c1.1992-1.0078 2.7148-1.5625 4.2852-1.5625h30.875l107.7-104.79c2.6445-2.5547 6.8516-2.4922 9.4141 0.14062 2.5625 2.6367 2.5117 6.8438-0.11328 9.4141l-107.28 104.39 4.543 38.164v-0.003906c0.27344 2.3008-0.66406 4.5781-2.4766 6.0156l-47.414 37.59v-0.003906c-1.1758 0.9375-2.6367 1.4453-4.1367 1.4453zm-30.422-44.004 30.766 28.555 40.004-31.719-3.7969-31.855h-25.238z"/>
  <path d="m548.28 341.2c-13.609 0-20.801-6.3594-26.582-11.473-5.1367-4.543-9.1875-8.1289-17.75-8.1289s-12.613 3.5859-17.75 8.1289c-5.7812 5.1133-12.973 11.473-26.582 11.473-13.609 0-20.801-6.3594-26.578-11.473-5.1367-4.543-9.1875-8.1289-17.746-8.1289-8.5547 0-12.609 3.582-17.742 8.125-5.7812 5.1133-12.973 11.473-26.578 11.473-13.605 0-20.801-6.3594-26.578-11.473-5.1367-4.543-9.1875-8.1289-17.746-8.1289-8.5547 0.003906-12.609 3.5859-17.746 8.1289-5.7812 5.1133-12.973 11.473-26.578 11.473s-20.801-6.3594-26.578-11.473c-5.1367-4.543-9.1875-8.1289-17.746-8.1289s-12.613 3.5859-17.746 8.1289c-5.7812 5.1133-12.973 11.473-26.578 11.473s-20.801-6.3594-26.578-11.473c-5.1367-4.543-9.1875-8.1289-17.746-8.1289v0.003906c-3.6836 0-6.668-2.9883-6.668-6.668 0-3.6836 2.9844-6.668 6.668-6.668 13.605 0 20.801 6.3594 26.578 11.473 5.1367 4.543 9.1875 8.1289 17.746 8.1289 8.5586 0 12.609-3.5859 17.746-8.1289 5.7812-5.1133 12.973-11.473 26.578-11.473s20.801 6.3594 26.578 11.473c5.1367 4.543 9.1875 8.1289 17.746 8.1289 8.5586 0 12.609-3.5859 17.746-8.1289 5.7812-5.1133 12.973-11.473 26.578-11.473 13.605 0 20.801 6.3594 26.578 11.473 5.1367 4.543 9.1875 8.1289 17.746 8.1289s12.609-3.5859 17.746-8.1289c5.7812-5.1133 12.973-11.473 26.578-11.473s20.801 6.3594 26.578 11.473c5.1367 4.543 9.1875 8.1289 17.746 8.1289s12.613-3.5859 17.75-8.1289c5.7812-5.1133 12.973-11.473 26.582-11.473s20.801 6.3594 26.582 11.473c5.1367 4.543 9.1875 8.1289 17.75 8.1289 3.6797 0 6.668 2.9844 6.668 6.6641 0 3.6836-2.9883 6.668-6.668 6.668z"/>
 </g>
</svg>
