<?xml version="1.0" encoding="UTF-8"?>
<svg width="50" height="50" version="1.1" viewBox="0 0 700 700" xmlns="http://www.w3.org/2000/svg" xmlns:xlink="http://www.w3.org/1999/xlink">
 <g>
  <path d="m440.07 154.4c-16.004 20.199-45.309 23.594-65.527 7.6211-20.16-15.918-23.527-45.242-7.5859-65.402 15.98-20.18 45.273-23.582 65.434-7.6406 20.223 15.973 23.629 45.273 7.6797 65.422z" fill-rule="evenodd"/>
  <path d="m274.66 182.69c-5.5078 0-10.758 2.2383-14.586 6.2227l-43.199 44.926c-20.031 19.445 10.527 48.793 29.168 28l37.164-38.672 35.617 0.097656-40.512 72.301c-6.5156 11.668-1.9727 26.184 9.7578 32.605 31.535 17.172 57.688 26.574 88.766 40.855l26.637 94.758c8.582 30.434 54.25 17.566 45.664-12.891l-29.652-105.25c-1.8789-6.707-6.5781-12.219-12.898-15.137l-45.66-20.961 27.578-56.848 24.02 27.871c5.6992 6.6445 15.031 8.8242 23.141 5.4492l60.766-25.379c26.867-9.5273 10.109-49.711-15.555-37.301l-47.281 19.738-36.949-43.047c-2.1406-2.4648-4.8594-4.3359-7.8711-5.543l-25.449-10.168c-2.3633-0.94141-4.8984-1.4297-7.4492-1.4297z"/>
  <path d="m291.41 344.28-10.559 21.777-72.727 20.352c-31.629 7.8398-18.344 55.352 12.73 45.629l83.031-23.172c6.582-1.8164 12.02-6.3789 15.008-12.512l15.625-32.238z"/>
 </g>
</svg>
