<?xml version="1.0" encoding="UTF-8"?>
<svg width="50" height="50" version="1.1" viewBox="0 0 700 700" xmlns="http://www.w3.org/2000/svg" xmlns:xlink="http://www.w3.org/1999/xlink">
 <g>
  <path d="m336.56 67.762c-26.32 0-53.199 13.441-53.199 53.199 0 14 1.1211 16.801 3.9219 29.121l18.48 75.602-98.562 59.918-89.602-52.078c-2.8008-1.6797-6.7188-1.6797-11.762-0.55859-4.4766 0.55469-7.8359 6.1562-7.8359 12.316 0 5.6016 2.8008 8.9609 6.7188 11.762l384.72 225.68c12.32 6.7188 22.961 9.5195 33.039 10.078 7.2812 0 14-1.1211 20.16-3.3594 14-5.6016 22.961-16.238 29.121-22.398 2.8008-2.8008 3.9219-6.7188 3.9219-10.641 0-5.6016-3.3594-11.762-10.641-12.32-4.4805-0.55859-8.3984 1.1211-11.762 5.0391-6.1602 7.8398-14 14-20.719 16.801s-14 3.3594-29.68-5.6016l-262.08-155.68 110.88-45.359c8.9609-6.1602 13.441-17.922 10.641-28l-17.922-63.84s85.68 45.922 101.92 75.602c16.238 29.68 12.879 57.68 26.32 72.801s67.199 39.199 67.199 39.199c42.559 18.48 48.719-21.84 21.281-33.602 0 0-30.801-1.6797-49.84-21.281-19.039-19.602-25.199-105.28-44.238-136.08-19.039-30.801-78.961-76.16-78.961-76.16-20.723-12.32-38.082-20.16-51.523-20.16z"/>
  <path d="m602 174.16c0 29.383-23.82 53.199-53.199 53.199-29.383 0-53.199-23.816-53.199-53.199 0-29.383 23.816-53.199 53.199-53.199 29.379 0 53.199 23.816 53.199 53.199"/>
 </g>
</svg>
