<?xml version="1.0" encoding="UTF-8"?>
<svg width="50" height="50" version="1.1" viewBox="0 0 700 700" xmlns="http://www.w3.org/2000/svg" xmlns:xlink="http://www.w3.org/1999/xlink">
 <g>
  <path d="m586.25 351.38 4.4414-0.44922c-1.0195-10.074-3.6172-19.898-7.7227-29.203l-4.1211 1.8125c-1.9023-4.2891-4.0469-8.5-6.6211-12.531-2.6836-4.1758-5.7305-8.0312-8.9727-11.672l3.3594-2.9844c-6.7695-7.5898-14.645-14.023-23.398-19.117l-2.2305 3.8398c-8.1914-4.7617-17.121-8.3164-26.633-10.406-0.078125-0.015625-0.15234-0.015625-0.23047-0.035156l0.92969-4.3164c-9.9102-2.1445-20.125-2.7383-30.156-1.7305l0.4375 4.3906c-2.0234 0.20312-4.0273 0.50391-6.0156 0.83594l-28.578-89.629 29.148-14.309-7.4023-15.082-42.152 20.691 16.777 52.617-149.09 3.0781-11.199-29.676h24.461v-16.801l-62.977 0.003907v16.801h20.559l16.32 43.215-26.281 39.559c-1.5742-1.0469-3.1523-2.0938-4.7891-3.0469l-2.2344 3.8398c-8.1797-4.7617-17.121-8.3164-26.633-10.406-0.078125-0.015625-0.15234-0.015625-0.23047-0.035156l0.93359-4.3164c-9.918-2.1445-20.121-2.7383-30.156-1.7305l0.44141 4.3906c-9.8164 0.95703-19.191 3.4766-27.895 7.2812l-1.7461-3.9648c-9.2734 4.082-17.82 9.5742-25.395 16.324l2.8789 3.2305c-7.1562 6.4023-13.305 13.91-18.199 22.367l-3.8203-2.2305c-5.0625 8.6758-8.7344 18.09-10.938 28.117l4.3164 0.91797c-2.1211 9.7227-2.5703 19.426-1.625 28.828l-4.457 0.4375c1.0078 10.086 3.5898 19.906 7.6836 29.215l4.168-1.8242c3.8867 8.8242 9.1211 16.996 15.535 24.215l-3.3945 3.0195c6.7656 7.5977 14.621 14.043 23.363 19.152l2.25-3.8516c8.1211 4.7617 17.074 8.3789 26.75 10.5 0.027344 0.011718 0.050781 0.011718 0.078125 0.023437l-0.94141 4.3008c7.043 1.5391 14.242 2.2969 21.391 2.2383 2.918-0.023438 5.8672-0.17188 8.7656-0.46094l-0.4375-4.3867c9.8164-0.94141 19.191-3.457 27.898-7.2539l1.7461 3.9805c9.2852-4.0703 17.84-9.5469 25.426-16.285l-2.8789-3.2383c7.168-6.3906 13.332-13.887 18.238-22.332l3.8242 2.2305c5.1016-8.7188 8.8047-18.188 10.992-28.172l-4.2891-1.082c0.30859-1.3906 0.50391-2.7891 0.73438-4.1758h40v-0.078124l0.054687 0.15234 114.96-139.01 11.77 36.895c-1.8945 0.68359-3.7617 1.3945-5.6016 2.1953l-1.7539-3.9648c-9.2734 4.082-17.82 9.5742-25.387 16.324l2.8789 3.2305c-7.1523 6.4023-13.312 13.91-18.199 22.367l-3.8203-2.2305c-5.0625 8.6758-8.7422 18.09-10.938 28.117l4.3125 0.91797c-2.1211 9.7227-2.5703 19.426-1.6172 28.828l-4.4531 0.4375c1.0078 10.086 3.5898 19.906 7.6758 29.215l4.168-1.8242c3.8789 8.8242 9.1211 16.996 15.527 24.215l-3.3867 3.0195c6.7578 7.5977 14.609 14.043 23.363 19.152l2.25-3.8516c8.1133 4.7617 17.074 8.3789 26.75 10.5 0.023438 0.011718 0.042969 0.011718 0.078125 0.023437l-0.94141 4.3008c7.043 1.5391 14.242 2.2969 21.391 2.2383 2.918-0.023438 5.8633-0.17188 8.7578-0.46094l-0.4375-4.3867c9.8242-0.94141 19.195-3.457 27.898-7.2539l1.7422 3.9805c9.2852-4.0703 17.84-9.5469 25.43-16.285l-2.8789-3.2383c7.1641-6.3906 13.332-13.887 18.234-22.332l3.832 2.2305c5.0977-8.7188 8.8047-18.188 10.992-28.172l-4.2734-1.0781c2.0977-9.6289 2.5703-19.355 1.6133-28.895zm-317.29-31.316c7.8125 12.195 11.789 26.062 11.84 40.207h-55.223l34.344-51.711c3.3359 3.5039 6.3711 7.3398 9.0391 11.504zm10.125 56.781c-7.5938 34.629-37.621 58.984-73.008 59.238-5.6016 0.035156-11.238-0.55859-16.766-1.7695-40.594-8.9141-66.367-49.184-57.449-89.773 7.5938-34.629 37.621-58.973 73.008-59.219 5.6016-0.039063 11.238 0.55859 16.766 1.7656 9.2695 2.0312 17.863 5.7617 25.535 10.859l-51.922 78.16h83.965c-0.050781 0.24609-0.074218 0.49609-0.12891 0.73828zm18.473-16.57c-0.015625-2.9727-0.125-5.9414-0.42188-8.8945l4.4414-0.44922c-1.0195-10.074-3.6172-19.898-7.7266-29.203l-4.1211 1.8125c-1.9023-4.2891-4.043-8.5-6.6211-12.531-2.6836-4.1758-5.7227-8.0312-8.9727-11.672l3.3594-2.9844c-1.793-2.0117-3.6719-3.9375-5.6211-5.7734l20.473-30.832 37.953 100.53h-32.742zm44.254-17.109-37.488-99.305 121.7-2.5156zm226.38 33.68c-7.5977 34.629-37.625 58.984-73.008 59.238-5.6016 0.035156-11.246-0.55859-16.766-1.7695-40.59-8.9141-66.359-49.184-57.457-89.773 5.6562-25.762 23.723-45.809 47.176-54.492l23.457 73.562 16-5.1055-23.109-72.453c3.1211-0.41016 6.2656-0.69922 9.4805-0.72266 5.6016-0.039062 11.246 0.55859 16.766 1.7656 19.668 4.3164 36.477 16.031 47.324 32.988 10.848 16.949 14.457 37.105 10.137 56.762z"/>
 </g>
</svg>
