<svg width="500pt" height="500pt" version="1.1" viewBox="0 0 500 500" xmlns="http://www.w3.org/2000/svg">
 <g>
  <path transform="matrix(.65701 0 0 .68253 44.636 34.973)" d="m310.27-15.493c62.243-0.55605 57.184 177.59 107.87 213.73 50.683 36.136 217.45-26.717 237.22 32.309 19.763 59.025-151.23 109.27-169.94 168.63s92.606 198.56 42.577 235.59c-50.029 37.036-150.65-110.06-212.89-109.51-62.243 0.55605-160.22 149.43-210.9 113.29-50.683-36.136 58.124-177.29 38.361-236.31s-191.63-106.2-172.92-165.57 186.57 0.4942 236.6-36.541c50.029-37.036 41.788-215.07 104.03-215.62z" fill-opacity="0" stroke="#000" stroke-width="22.4"/>
 </g>
</svg>
