<svg width="700pt" height="700pt" version="1.1" viewBox="0 0 700 700" xmlns="http://www.w3.org/2000/svg">
 <g stroke-width="1.9278">
  <path d="m333.33 367.07h-166.67c1.6667 44.39 6.6667 87.073 16.667 126.34 46.667-23.902 96.667-37.561 148.33-39.268v-87.073z"/>
  <path d="m366.67 367.07v85.366c51.667 1.7073 103.33 15.366 148.33 39.268 10-39.268 15-81.951 16.667-126.34h-165z"/>
  <path d="m333.33 332.93v-85.366c-51.667-1.7073-103.33-15.366-148.33-39.268-10 39.268-15 81.951-16.667 126.34h165z"/>
  <path d="m133.33 367.07h-133.33c3.3333 78.537 31.667 151.95 78.333 208.29 23.333-25.61 48.333-47.805 75-64.878-11.667-44.39-18.333-93.902-20-143.41z"/>
  <path d="m566.67 367.07c-1.6667 49.512-8.3333 99.024-20 143.41 28.333 17.073 53.333 39.268 75 64.878 45-56.341 73.333-129.76 78.333-208.29z"/>
  <path d="m366.67 247.56v85.366h166.67c-1.6667-44.39-6.6667-87.073-16.667-126.34-46.667 23.902-98.333 37.561-150 40.976z"/>
  <path d="m133.33 332.93c1.6667-49.512 8.3333-99.024 20-143.41-28.333-17.073-53.333-39.268-75-64.878-45 56.341-73.333 129.76-78.333 208.29z"/>
  <path d="m566.67 332.93h133.33c-3.3333-78.537-31.667-151.95-78.333-208.29-23.333 25.61-48.333 47.805-75 64.878 11.667 44.39 18.333 93.902 20 143.41z"/>
  <path d="m193.33 174.16c43.333 23.902 90 37.561 140 39.268v-203.16c-56.667 10.244-110 70-140 163.9z"/>
  <path d="m165.01 544.63c-23.333 15.366-43.333 34.146-63.333 56.341l-1.6667 1.7073c45 47.805 103.33 81.951 168.33 97.317-41.667-30.732-80-83.659-103.33-155.37z"/>
  <path d="m101.66 99.034c18.333 22.195 40 39.268 63.333 56.341 25-71.707 61.667-124.63 105-153.66-66.667 15.366-125 49.512-168.33 97.317-1.6667 0 0 0 0 0z"/>
  <path d="m598.34 600.97c-18.333-22.195-40-39.268-63.333-56.341-25 71.707-61.667 124.63-105 153.66 66.667-15.366 125-49.512 168.33-97.317 1.6667 0 0 0 0 0z"/>
  <path d="m534.99 155.37c23.333-15.366 43.333-34.146 63.333-56.341l1.6667-1.7073c-45-47.805-103.33-81.951-168.33-97.317 41.667 30.732 80 83.659 103.33 155.37z"/>
  <path d="m366.67 10.254v203.16c48.333-1.7073 96.667-15.366 140-39.268-31.667-93.902-83.333-153.66-140-163.9z"/>
  <path d="m333.33 689.75v-203.16c-48.333 1.7073-96.667 15.366-140 39.268 30 93.902 83.333 153.66 140 163.9z"/>
  <path d="m506.67 525.84c-43.333-22.195-91.667-35.854-140-39.268v203.16c56.667-10.244 110-70 140-163.9z"/>
 </g>
</svg>
