<?xml version="1.0" encoding="UTF-8" standalone="no"?>
<svg
   xmlns:svg="http://www.w3.org/2000/svg"
   xmlns="http://www.w3.org/2000/svg"
   xmlns:xlink="http://www.w3.org/1999/xlink"
   id="SVGRoot"
   version="1.1"
   viewBox="0 0 100 100"
   height="100mm"
   width="100mm">
  <defs
     id="defs847">
    <linearGradient
       id="linearGradient1409">
      <stop
         id="stop1405"
         offset="0"
         style="stop-color:#fcbf58;stop-opacity:1" />
      <stop
         id="stop1407"
         offset="1"
         style="stop-color:#ff5b5b;stop-opacity:0.72941178" />
    </linearGradient>
    <linearGradient
       gradientTransform="matrix(0.79858658,0,0,1.9667775,-122.44726,13.095173)"
       gradientUnits="userSpaceOnUse"
       y2="45.855118"
       x2="122.84476"
       y1="45.662937"
       x1="41.199402"
       id="linearGradient1417"
       xlink:href="#linearGradient1409" />
    <linearGradient
       gradientTransform="matrix(0.24118384,0,0,1.8504926,-140.19105,-15.890962)"
       gradientUnits="userSpaceOnUse"
       y2="45.470757"
       x2="171.22841"
       y1="45.662937"
       x1="41.199402"
       id="linearGradient1417-3"
       xlink:href="#linearGradient1811" />
    <linearGradient
       id="linearGradient1811">
      <stop
         style="stop-color:#003d5b;stop-opacity:0.72941178"
         offset="0"
         id="stop1807" />
      <stop
         style="stop-color:#6ccfff;stop-opacity:0.72941178"
         offset="1"
         id="stop1809" />
    </linearGradient>
    <linearGradient
       y2="45.855118"
       x2="122.84476"
       y1="45.662937"
       x1="41.199402"
       gradientTransform="matrix(0.71601824,0,0,1.9820473,-133.95518,-21.697685)"
       gradientUnits="userSpaceOnUse"
       id="linearGradient1963"
       xlink:href="#linearGradient1409" />
    <clipPath
       id="clipPath2987"
       clipPathUnits="userSpaceOnUse">
      <path
         style="display:inline;opacity:1;fill:#040404;fill-opacity:1;stroke-width:0.26458332"
         id="path2989"
         d="M 151.81404,95.693993 100.2929,125.43974 48.771762,95.693992 l 0,-59.491485 L 100.2929,6.4567642 151.81404,36.202507 Z"
         transform="matrix(1.2065536,0,0,-3.2030754,-52.549968,396.15859)" />
    </clipPath>
    <clipPath
       id="clipPath2991"
       clipPathUnits="userSpaceOnUse">
      <path
         style="display:inline;opacity:1;fill:#040404;fill-opacity:1;stroke-width:0.26458332"
         id="path2993"
         d="M 151.81404,95.693993 100.2929,125.43974 48.771762,95.693992 l 0,-59.491485 L 100.2929,6.4567642 151.81404,36.202507 Z"
         transform="matrix(1.1357384,0,0,-1.9709603,-1.511449,278.45856)" />
    </clipPath>
    <clipPath
       id="clipPath2995"
       clipPathUnits="userSpaceOnUse">
      <path
         style="display:inline;opacity:1;fill:#040404;fill-opacity:1;stroke-width:0.26458332"
         id="path2997"
         d="M 151.81404,95.693993 100.2929,125.43974 48.771762,95.693992 l 0,-59.491485 L 100.2929,6.4567642 151.81404,36.202507 Z"
         transform="matrix(0.60305681,0,0,-1.9709603,46.885111,278.45856)" />
    </clipPath>
    <clipPath
       id="clipPath2999"
       clipPathUnits="userSpaceOnUse">
      <path
         style="display:inline;opacity:1;fill:#040404;fill-opacity:1;stroke-width:0.26458332"
         id="path3001"
         d="M 151.81404,95.693993 100.2929,125.43974 48.771762,95.693992 l 0,-59.491485 L 100.2929,6.4567642 151.81404,36.202507 Z"
         transform="matrix(1.2065536,0,0,0.81206623,-52.549968,12.604817)" />
    </clipPath>
    <clipPath
       id="clipPath3003"
       clipPathUnits="userSpaceOnUse">
      <path
         style="display:inline;opacity:1;fill:#040404;fill-opacity:1;stroke-width:0.26458332"
         id="path3005"
         d="M 151.81404,95.693993 100.2929,125.43974 48.771762,95.693992 l 0,-59.491485 L 100.2929,6.4567642 151.81404,36.202507 Z"
         transform="matrix(1.1357384,0,0,0.49969172,-1.511449,42.444971)" />
    </clipPath>
    <clipPath
       id="clipPath3007"
       clipPathUnits="userSpaceOnUse">
      <path
         style="display:inline;opacity:1;fill:#040404;fill-opacity:1;stroke-width:0.26458332"
         id="path3009"
         d="M 151.81404,95.693993 100.2929,125.43974 48.771762,95.693992 l 0,-59.491485 L 100.2929,6.4567642 151.81404,36.202507 Z"
         transform="matrix(0.60305681,0,0,0.49969172,46.885111,42.444971)" />
    </clipPath>
    <clipPath
       id="clipPath3011"
       clipPathUnits="userSpaceOnUse">
      <path
         style="display:inline;opacity:1;fill:#040404;fill-opacity:1;stroke-width:0.26458332"
         id="path3013"
         d="M 151.81404,95.693993 100.2929,125.43974 48.771762,95.693992 l 0,-59.491485 L 100.2929,6.4567642 151.81404,36.202507 Z"
         transform="matrix(0,0.97047545,-0.84045639,0,-24.169499,-27.949168)" />
    </clipPath>
    <clipPath
       id="clipPath3015"
       clipPathUnits="userSpaceOnUse">
      <path
         style="display:inline;opacity:1;fill:#040404;fill-opacity:1;stroke-width:0.26458332"
         id="path3017"
         d="M 151.81404,95.693993 100.2929,125.43974 48.771762,95.693992 l 0,-59.491485 L 100.2929,6.4567642 151.81404,36.202507 Z"
         transform="matrix(0,0.97047545,-0.84045639,0,-24.169499,-27.949168)" />
    </clipPath>
    <clipPath
       id="clipPath3019"
       clipPathUnits="userSpaceOnUse">
      <path
         style="display:inline;opacity:1;fill:#040404;fill-opacity:1;stroke-width:0.26458332"
         id="path3021"
         d="M 151.81404,95.693993 100.2929,125.43974 48.771762,95.693992 l 0,-59.491485 L 100.2929,6.4567642 151.81404,36.202507 Z"
         transform="matrix(0.97047545,0,0,0.84045639,-27.949168,24.169499)" />
    </clipPath>
  </defs>
  <g
     transform="translate(-19.38263,-29.596128)"
     id="layer7">
    <rect
       clip-path="url(#clipPath3019)"
       y="24.922377"
       x="7.9512682"
       height="105.23737"
       width="123.21124"
       id="rect2985"
       style="opacity:1;fill:#ffffff;fill-opacity:1;stroke-width:0.26458332" />
    <rect
       clip-path="url(#clipPath3015)"
       transform="rotate(-90)"
       y="12.433628"
       x="-104.45566"
       height="112.74958"
       width="76.590508"
       id="rect1403"
       style="display:inline;opacity:1;fill:url(#linearGradient1963);fill-opacity:1;stroke-width:0.31519654" />
    <rect
       clip-path="url(#clipPath3011)"
       transform="rotate(-90)"
       y="15.974945"
       x="-130.25441"
       height="105.26603"
       width="25.798775"
       id="rect1403-5"
       style="display:inline;opacity:1;fill:url(#linearGradient1417-3);fill-opacity:1;stroke-width:0.17675844" />
    <path
       clip-path="url(#clipPath3007)"
       transform="matrix(1.6092604,0,0,1.6819498,-103.39952,-47.220811)"
       d="m 123.29594,90.178944 -21.62035,0 -21.620354,0 10.810177,-18.723776 10.810177,-18.723776 10.81018,18.723775 z"
       id="path1835-3"
       style="display:inline;opacity:1;fill:#2e2e2e;fill-opacity:0.72941176;stroke-width:0.26458332" />
    <path
       clip-path="url(#clipPath3003)"
       transform="matrix(0.85448852,0,0,1.6819498,-26.657652,-47.220811)"
       d="m 123.29594,90.178944 -21.62035,0 -21.620354,0 10.810177,-18.723776 10.810177,-18.723776 10.81018,18.723775 z"
       id="path1835"
       style="display:inline;opacity:1;fill:#2e2e2e;fill-opacity:0.72941176;stroke-width:0.26458332" />
    <path
       clip-path="url(#clipPath2999)"
       transform="matrix(0.80433677,0,0,1.0349604,14.318704,11.124013)"
       d="m 123.29594,90.178944 -21.62035,0 -21.620354,0 10.810177,-18.723776 10.810177,-18.723776 10.81018,18.723775 z"
       id="path1835-3-5"
       style="display:inline;opacity:1;fill:#2e2e2e;fill-opacity:0.72941176;stroke-width:0.26458332" />
    <path
       clip-path="url(#clipPath2995)"
       transform="matrix(1.6092604,0,0,-0.42641975,-103.39952,142.90973)"
       d="m 123.29594,90.178944 -21.62035,0 -21.620354,0 10.810177,-18.723776 10.810177,-18.723776 10.81018,18.723775 z"
       id="path1835-3-6"
       style="display:inline;opacity:0.456;fill:#2e2e2e;fill-opacity:0.72941176;stroke-width:0.26458332" />
    <path
       clip-path="url(#clipPath2991)"
       transform="matrix(0.85448852,0,0,-0.42641975,-26.657652,142.90973)"
       d="m 123.29594,90.178944 -21.62035,0 -21.620354,0 10.810177,-18.723776 10.810177,-18.723776 10.81018,18.723775 z"
       id="path1835-2"
       style="display:inline;opacity:0.456;fill:#2e2e2e;fill-opacity:0.34951459;stroke-width:0.26458332" />
    <path
       clip-path="url(#clipPath2987)"
       transform="matrix(0.80433677,0,0,-0.26239045,14.318704,128.11773)"
       d="m 123.29594,90.178944 -21.62035,0 -21.620354,0 10.810177,-18.723776 10.810177,-18.723776 10.81018,18.723775 z"
       id="path1835-3-5-6"
       style="display:inline;opacity:0.456;fill:#2e2e2e;fill-opacity:0.72941176;stroke-width:0.26458332" />
  </g>
</svg>
