<svg width="24" height="24" version="1.1" viewBox="0 0 700 700" xmlns="http://www.w3.org/2000/svg">
 <path d="m139.07 17.531c-28.246 0-51.543 23.297-51.543 51.543v421.88c0 28.246 23.297 51.578 51.543 51.578h421.91c28.246 0 51.543-23.332 51.543-51.578v-421.88c0-28.246-23.297-51.543-51.543-51.543zm104.35 149.81c4.1562 0.050781 8.3008 0.33203 12.441 0.67969 33.125 3.0078 66.926 14.355 99.734 25.293 32.812 10.938 64.672 21.469 91.703 23.926 27.031 2.4609 47.637-1.9062 65.387-19.652l0.003906 0.003906c3.2656-3.3867 7.7578-5.3125 12.461-5.3477 4.7031-0.035157 9.2227 1.8281 12.539 5.1602 3.3164 3.3359 5.1523 7.8672 5.0898 12.57s-2.0117 9.1836-5.4141 12.43c-26 26-60.152 32.578-93.277 29.566-33.125-3.0078-66.785-14.355-99.598-25.293s-64.707-21.469-91.738-23.926c-27.031-2.4609-47.602 1.9062-65.352 19.652-3.2773 3.3477-7.7578 5.2422-12.445 5.2656-4.6836 0.023437-9.1836-1.8242-12.496-5.1367s-5.1602-7.8125-5.1367-12.496c0.023438-4.6836 1.918-9.1641 5.2617-12.445 22.75-22.75 51.754-30.648 80.836-30.25zm0 139.93c4.1562 0.050781 8.3008 0.26562 12.441 0.66016 33.125 3.0078 66.926 14.492 99.734 25.43 32.812 10.938 64.672 21.332 91.703 23.789 27.031 2.4531 47.637-1.7656 65.387-19.516l0.003906 0.003907c3.2656-3.3789 7.7578-5.3047 12.457-5.3359 4.7031-0.035156 9.2188 1.8281 12.535 5.1602 3.3125 3.332 5.1484 7.8594 5.0898 12.562-0.058593 4.6992-2.0078 9.1797-5.4062 12.43-26 26-60.152 32.578-93.277 29.566-33.125-3.0078-66.789-14.492-99.598-25.43-32.812-10.938-64.707-21.332-91.738-23.789-27.031-2.4531-47.602 1.9062-65.352 19.652-3.293 3.2891-7.7578 5.1367-12.414 5.1367-4.6523 0-9.1172-1.8516-12.41-5.1445-3.2891-3.293-5.1367-7.7578-5.1367-12.41 0.003906-4.6562 1.8516-9.1211 5.1445-12.41 22.75-22.75 51.754-30.727 80.836-30.352z"/>
</svg>
