<?xml version="1.0" encoding="iso-8859-1"?>
<!-- Generator: Adobe Illustrator 19.0.0, SVG Export Plug-In . SVG Version: 6.00 Build 0)  -->
<svg version="1.1" id="Capa_1" xmlns="http://www.w3.org/2000/svg" xmlns:xlink="http://www.w3.org/1999/xlink" x="0px" y="0px"
	 viewBox="0 0 512 512" style="enable-background:new 0 0 512 512;" xml:space="preserve">
<polyline style="fill:#4C5E66;" points="13.629,443.412 206.175,0.329 423.186,487.787 182.873,511.671 "/>
<polygon style="fill:#829399;" points="218.103,154.775 245.236,154.775 243.149,269.566 274.455,250.782 313.651,376.458 
	356.677,338.389 206.175,0.329 "/>
<polyline style="fill:#4C5E66;" points="256.626,401.773 364.222,165.206 508.443,443.572 "/>
<polygon style="fill:#829399;" points="364.222,165.211 365.245,300.873 392.377,300.873 417.85,472.82 508.441,443.569 "/>
<path style="fill:#8BC923;" d="M0,511.671h512v-50.226c0-25.275-20.266-46.115-45.551-46.313c-0.157,0-0.313-0.01-0.47-0.01
	c-16.019,0-30.441,6.658-40.793,17.292c-9.601-29.658-37.871-50.915-70.972-49.83c-38.038,1.252-68.854,32.507-69.605,70.555
	c-0.01,0.49,0.01,0.97,0.01,1.451c-0.72-0.397-50.237-27.091-86.156,8.818c-8.422,8.296-11.97,17.5-12.502,26.715
	c-8.421-15.925-25.254-26.715-44.466-26.715c-7.368,0-14.338,1.586-20.652,4.477c-6.71-27.237-31.317-47.231-60.526-47.231
	c-0.699,0-1.398,0.01-2.087,0.031c-32.068,1.054-57.343,27.79-57.792,59.869L0,511.671z"/>
<g>
	<path style="fill:#7EB515;" d="M198.464,490.017c-6.877,6.762-10.509,14.151-11.886,21.654H512v-23.616
		c0-25.285-20.266-46.115-45.551-46.313c-0.157-0.01-0.313-0.01-0.47-0.01c-16.019,0-30.441,6.647-40.793,17.281
		c-9.601-29.658-37.871-50.915-70.972-49.819c-38.038,1.252-68.854,32.507-69.605,70.555c-0.01,0.49,0.01,0.96,0.01,1.451
		C283.899,480.803,234.383,454.098,198.464,490.017z"/>
	<path style="fill:#7EB515;" d="M0.376,511.671h182.497c-9.069-13.107-24.284-21.654-41.377-21.654
		c-7.368,0-14.338,1.586-20.652,4.477c-6.71-27.237-31.317-47.231-60.526-47.231c-0.699,0-1.398,0.01-2.087,0.031
		c-32.068,1.054-57.343,27.79-57.792,59.869L0.376,511.671z"/>
</g>
<g>
	<polygon style="fill:#BFC5D2;" points="133.93,166.578 144.992,240.597 191.952,181.114 244.077,218.662 285.684,178.933 
		206.175,0.329 	"/>
	<polygon style="fill:#BFC5D2;" points="281.781,346.455 346.909,320.419 399.004,345.631 418.915,321.984 453.509,337.554 
		453.519,337.554 364.222,165.211 	"/>
</g>
<g>
	<polygon style="fill:#F1F5FE;" points="218.103,154.775 245.236,154.775 244.077,218.662 285.684,178.933 206.175,0.329 	"/>
	<polygon style="fill:#F1F5FE;" points="364.222,165.211 365.245,300.873 392.377,300.873 399.004,345.631 418.915,321.984 
		453.509,337.554 	"/>
</g>
<g>
</g>
<g>
</g>
<g>
</g>
<g>
</g>
<g>
</g>
<g>
</g>
<g>
</g>
<g>
</g>
<g>
</g>
<g>
</g>
<g>
</g>
<g>
</g>
<g>
</g>
<g>
</g>
<g>
</g>
</svg>
