<?xml version="1.0" encoding="UTF-8"?>
<!-- Generator: Adobe Illustrator 19.2.0, SVG Export Plug-In . SVG Version: 6.00 Build 0)  -->
<svg version="1.1" id="Layer_1" xmlns="http://www.w3.org/2000/svg" xmlns:xlink="http://www.w3.org/1999/xlink" x="0px" y="0px" width="170px" height="24px" viewBox="0 0 170 24" enable-background="new 0 0 170 24" xml:space="preserve">
<g id="Layer_1_1_">
	<g>
		<path d="M112.631,18.416v-0.841h0.692c0.295,0,0.603,0.057,0.603,0.422c0,0.363-0.308,0.42-0.603,0.42h-0.692V18.416z     M114.245,17.962c-0.022-0.505-0.436-0.594-0.857-0.594h-1.055v2.374h0.297v-1.093h0.541c0.231,0.364,0.462,0.73,0.691,1.093    h0.354c-0.242-0.366-0.486-0.731-0.729-1.098C113.947,18.625,114.27,18.466,114.245,17.962"/>
		<path d="M113.141,20.404c-1.033,0-1.817-0.856-1.817-1.846c0-0.992,0.784-1.848,1.817-1.848c1.027,0,1.813,0.856,1.813,1.848    C114.953,19.549,114.168,20.404,113.141,20.404 M113.141,16.429c-1.196,0-2.165,0.953-2.165,2.129s0.969,2.127,2.165,2.127    c1.193,0,2.161-0.951,2.161-2.127C115.301,17.382,114.334,16.429,113.141,16.429"/>
		<path fill="#E2002B" d="M45.097,10.724c0.437,5.487-4.142,10.323-9.687,10.493c-5.861,0.18-10.104-4.851-8.946-10.493    C26.464,10.724,45.097,10.724,45.097,10.724z"/>
		<path fill="#E2002B" d="M44.515,8.216c-1.368-3.459-4.76-5.529-8.475-5.434c-3.668,0.093-7.017,2.25-8.678,5.434H44.515z"/>
		<path d="M7.686,10.724h10.017c0.691,0,1.293-0.551,1.357-1.229c0.067-0.708-0.477-1.277-1.199-1.277H5.872    C6.38,6.763,6.889,5.313,7.395,3.859c0.13-0.372,0.496-0.636,0.9-0.636h10.552c3.593,0,6.29,2.907,5.956,6.426    c-0.314,3.371-3.301,6.049-6.741,6.052c-2.197,0-4.395,0-6.593,0.002c-0.611,0-1.14,0.379-1.327,0.915    c-0.399,1.142-0.798,2.286-1.196,3.429c-0.132,0.372-0.495,0.639-0.899,0.639H3.189c-0.861,0-1.392-0.805-1.114-1.598    c0.68-1.942,1.356-3.885,2.037-5.826C4.629,11.772,6.076,10.724,7.686,10.724"/>
		<path d="M100.621,20.685c-0.373-1.379-0.746-2.756-1.124-4.134c-0.142-0.522-0.587-0.85-1.131-0.85c-0.52,0-1.039,0-1.558,0    c-0.612,0.002-1.141,0.381-1.328,0.917c-0.401,1.142-0.797,2.288-1.198,3.429c-0.131,0.372-0.494,0.639-0.895,0.639h-4.862    c-0.859,0-1.391-0.805-1.116-1.596c0.681-1.944,1.359-3.887,2.038-5.829c0.52-1.488,1.967-2.534,3.578-2.534h10.016    c0.689,0,1.291-0.554,1.356-1.232c0.067-0.71-0.476-1.279-1.198-1.279H91.21c0.507-1.452,1.017-2.905,1.523-4.356    c0.131-0.372,0.496-0.637,0.899-0.637h10.555c3.593,0,6.289,2.908,5.956,6.427c-0.223,2.378-1.775,4.411-3.877,5.404    c0.513,1.868,1.026,3.741,1.535,5.632L100.621,20.685L100.621,20.685z"/>
		<path d="M56.546,8.216C57,6.922,57.45,5.629,57.902,4.335c0.193-0.552-0.181-1.113-0.78-1.113h-5.33    c-0.404,0-0.768,0.266-0.9,0.637c-0.506,1.453-1.014,2.904-1.521,4.356L56.546,8.216L56.546,8.216z"/>
		<path d="M60.977,20.685H46.686c-0.862,0-1.391-0.805-1.114-1.596c0.974-2.788,1.948-5.576,2.923-8.363h7.176    c-0.335,0.955-0.667,1.908-1.001,2.865c-0.277,0.792,0.265,1.597,1.125,1.597h6.089c0.86,0,1.408,0.802,1.131,1.59l-1.14,3.268    C61.745,20.419,61.379,20.685,60.977,20.685"/>
		<path d="M77.481,3.557c-1.317,1.555-2.631,3.106-3.948,4.659h10.635c-0.132-1.42-0.266-2.841-0.399-4.261    c-0.041-0.431-0.397-0.732-0.832-0.732h-4.728C77.927,3.222,77.661,3.346,77.481,3.557"/>
		<path d="M78.919,20.685h5.376c0.542,0,0.994-0.485,0.943-1.02c-0.279-2.979-0.557-5.961-0.835-8.94H71.407    c-2.242,2.645-4.48,5.289-6.722,7.934c-0.683,0.805-0.205,2.025,0.886,2.025h4.274c0.28,0,0.545-0.139,0.725-0.348    c1.176-1.39,2.352-2.777,3.528-4.164c0.258-0.304,0.643-0.472,1.047-0.472h1.443c0.625,0,1.141,0.428,1.198,1.046    c0.101,1.063,0.2,2.127,0.299,3.19C78.126,20.369,78.483,20.685,78.919,20.685"/>
	</g>
	<g>
		<g>
			<path fill="#262626" d="M134.369,16.673h-1.389V8.106h4.834V9.29h-3.445v2.678h3.229v1.189h-3.229L134.369,16.673L134.369,16.673     z"/>
			<path fill="#262626" d="M139.367,16.673V8.106h1.4v7.365h3.627v1.201h-5.027V16.673z"/>
			<path fill="#262626" d="M153.477,12.378c0,1.395-0.349,2.478-1.046,3.252c-0.697,0.773-1.685,1.16-2.962,1.16     c-1.293,0-2.286-0.384-2.979-1.151c-0.693-0.768-1.04-1.858-1.04-3.272s0.349-2.5,1.046-3.258     c0.697-0.758,1.692-1.137,2.985-1.137c1.273,0,2.258,0.385,2.953,1.154C153.129,9.895,153.477,10.979,153.477,12.378z      M146.938,12.378c0,1.055,0.213,1.854,0.639,2.399c0.426,0.545,1.057,0.817,1.893,0.817c0.832,0,1.46-0.269,1.884-0.809     c0.424-0.539,0.636-1.342,0.636-2.408c0-1.051-0.21-1.848-0.63-2.391s-1.046-0.814-1.878-0.814c-0.84,0-1.474,0.271-1.901,0.814     S146.938,11.327,146.938,12.378z"/>
			<path fill="#262626" d="M163.221,16.673h-1.523l-1.453-5.109c-0.062-0.223-0.141-0.544-0.234-0.964     c-0.094-0.42-0.15-0.712-0.17-0.876c-0.039,0.25-0.102,0.574-0.19,0.973c-0.088,0.398-0.161,0.695-0.22,0.891l-1.418,5.086     h-1.523l-1.107-4.289l-1.125-4.277h1.43l1.225,4.992c0.191,0.801,0.328,1.508,0.41,2.121c0.043-0.332,0.107-0.703,0.193-1.113     s0.164-0.742,0.234-0.996l1.395-5.004h1.389l1.43,5.027c0.137,0.465,0.281,1.16,0.434,2.086c0.059-0.559,0.199-1.269,0.422-2.133     l1.219-4.981h1.418L163.221,16.673z"/>
		</g>
	</g>
</g>
<g id="Layer_2">
	<line fill="none" stroke="#B0B0B0" stroke-miterlimit="10" x1="124.5" y1="18.5" x2="124.5" y2="3.5"/>
</g>
</svg>